<svg width="58" height="58" viewBox="0 0 58 58" fill="none" xmlns="http://www.w3.org/2000/svg">
<path d="M16.2145 47.5531L17.1869 48.1336C20.7585 50.2613 24.8211 51.3867 28.934 51.3867C41.6223 51.3867 51.9452 41.0638 51.9452 28.375C51.9452 15.6861 41.6223 5.36381 28.934 5.36381C16.2464 5.36381 5.92286 15.6861 5.92286 28.375C5.92286 32.5644 7.08686 36.6901 9.28811 40.3058L9.88511 41.2855L7.58589 49.8652L16.2145 47.5531ZM0 57.4504L4.119 42.0827C1.78733 37.8749 0.559651 33.1608 0.559651 28.375C0.559651 12.7293 13.2889 -1.52588e-05 28.934 -1.52588e-05C44.5797 -1.52588e-05 57.309 12.7293 57.309 28.375C57.309 44.0207 44.5797 56.75 28.934 56.75C24.2376 56.75 19.5982 55.5639 15.4467 53.3118L0 57.4504Z" fill="white"/>
<path d="M28.121 40.4726C28.7199 39.9981 29.2385 39.4378 29.7491 38.877C30.3278 38.242 30.8733 37.5752 31.3681 36.8692C32.1549 35.7462 32.8358 34.5675 33.3918 33.3111C33.8626 32.2481 34.2208 31.1533 34.489 30.0279C34.6182 29.4848 34.6984 28.9294 34.7964 28.3795C34.8338 28.1707 34.7891 28.0691 34.5252 28.0648C33.5173 28.0477 32.5174 27.9368 31.515 27.8174C29.2207 27.5437 26.9938 27.0061 24.8158 26.2493C24.4049 26.1067 24.0008 25.945 23.5936 25.7925C23.3285 24.8912 22.9317 24.0371 22.6433 23.1449C22.4902 22.671 22.208 22.2375 22.1865 21.7213C23.7173 22.4463 25.2793 23.0996 26.8946 23.6048C28.4143 24.0805 29.9555 24.4834 31.5401 24.7057C32.371 24.8214 33.2026 24.9096 34.0384 24.9843C34.7989 25.0523 35.5575 25.0094 36.3149 25.0443C36.4625 25.051 36.5997 25.0241 36.7362 24.9794C37.2279 26.2885 37.7104 27.6013 38.2131 28.9061C38.5266 29.7193 38.7727 30.56 39.172 31.3394C38.4972 33.0717 37.6045 34.69 36.5323 36.2018C35.939 37.0388 35.2667 37.8189 34.5515 38.5641C33.415 39.7477 32.1604 40.7794 30.7956 41.6813C30.2218 42.0604 29.6414 42.4351 29.0076 42.7137C28.7125 41.9667 28.4161 41.2197 28.121 40.4726Z" fill="white"/>
<path d="M25.6378 32.6516C24.742 32.4532 23.889 32.125 23.0318 31.8054C21.8647 31.3707 20.7522 30.8171 19.6525 30.2379C18.3629 29.5582 17.1653 28.7402 16.0264 27.8303C15.2714 27.2272 14.5807 26.5555 13.9261 25.8519C13.0475 24.9084 12.3054 23.8589 11.6716 22.7334C11.1432 21.7942 10.7305 20.8077 10.4066 19.7821C10.379 19.6952 10.3588 19.6052 10.3882 19.4937C10.6521 19.8286 10.9081 20.1697 11.1824 20.4961C11.9 21.3502 12.6366 22.183 13.4755 22.9288C14.1919 23.565 14.9058 24.2011 15.6749 24.7724C16.6815 25.5207 17.731 26.2016 18.8295 26.8133C20.3958 27.6858 22.046 28.352 23.7414 28.9178C23.9668 28.9931 24.2197 28.9906 24.4156 29.1492C24.4174 29.3905 24.5283 29.6011 24.606 29.8209C24.944 30.7669 25.3445 31.6897 25.6378 32.6516Z" fill="white"/>
<path d="M34.3147 18.3551C34.8897 18.093 35.5124 18 36.1247 17.8934C36.9691 17.7465 37.8287 17.6816 38.686 17.7042C40.3067 17.7459 41.8981 17.9614 43.3738 18.7035C43.4332 18.7335 43.4944 18.7617 43.552 18.7954C43.7191 18.8952 43.8857 18.9974 44.1245 19.1425C43.6524 19.1591 43.2685 19.2209 42.8925 19.3501C42.0249 19.6477 41.543 20.2912 41.2644 21.1197C41.1762 21.3811 41.107 21.653 41.0721 21.9261C41.0476 22.1202 40.9454 22.1992 40.7874 22.2476C39.8843 22.5237 38.9707 22.7392 38.0241 22.8158C37.3475 22.8709 36.6733 22.9419 35.9936 22.934C35.9881 22.8788 35.9943 22.8188 35.9759 22.7686C35.4242 21.2966 34.8688 19.8259 34.3147 18.3551Z" fill="white"/>
<path d="M25.6377 32.6516C25.3444 31.6897 24.9439 30.7669 24.606 29.8209C24.5282 29.6011 24.4174 29.3905 24.4155 29.1492C25.034 29.2931 25.6506 29.4456 26.2708 29.5784C27.0442 29.7444 27.8224 29.8766 28.6098 29.9673C29.5375 30.075 30.4633 30.1761 31.3989 30.165C31.6346 30.1626 31.7351 30.2422 31.6524 30.5404C31.0101 32.8592 29.9214 34.9515 28.5094 36.887C28.2633 37.225 28.0245 37.5691 27.7214 37.8618C27.3736 36.9304 27.0393 35.9936 26.6719 35.0702C26.5262 34.7047 26.4772 34.2871 26.1698 33.995C26.2451 33.6889 26.2959 33.3735 26.4055 33.0802C26.4821 32.8745 26.3565 32.8378 26.2396 32.7998C26.0443 32.7355 25.8391 32.6994 25.6377 32.6516Z" fill="white"/>
<path d="M22.1861 21.7213C22.2076 22.2375 22.4898 22.671 22.6429 23.1449C22.9319 24.0371 23.3281 24.8912 23.5938 25.7925C22.3392 25.3425 21.1691 24.7192 20.0198 24.0554C18.9893 23.4609 18.0267 22.7647 17.1168 22.0054C16.2663 21.2957 15.4887 20.5046 14.7521 19.6725C13.5881 18.3573 12.6678 16.8865 11.8902 15.3202C11.8118 15.1635 11.7353 15.0055 11.7261 14.8016C12.238 15.2284 12.7272 15.6429 13.2232 16.0489C14.6241 17.1957 16.1133 18.2201 17.6404 19.1906C19.0811 20.106 20.5801 20.9155 22.1163 21.657C22.1439 21.6705 22.1629 21.6993 22.1861 21.7213Z" fill="white"/>
<path d="M34.3146 18.3551C34.8688 19.8259 35.4241 21.2966 35.9758 22.7686C35.9942 22.8188 35.9881 22.8789 35.9936 22.934C33.5707 22.9033 31.1692 22.6719 28.7646 22.1778C29.2178 21.4987 29.7805 20.966 30.3701 20.4713C31.1967 19.7769 32.1287 19.235 33.1169 18.7997C33.5064 18.6276 33.8927 18.4402 34.3146 18.3551Z" fill="white"/>
<path d="M26.1699 33.995C26.4773 34.2871 26.5263 34.7047 26.672 35.0702C27.0394 35.9942 27.3737 36.9304 27.7215 37.8617C27.2953 38.4973 26.7504 39.0294 26.1907 39.5401C25.32 40.3336 24.3844 41.0476 23.3864 41.6788C22.6712 42.1307 21.9193 42.5116 21.1643 42.8894C21.108 42.9175 21.0596 42.92 20.98 42.8912C21.2494 42.5563 21.5629 42.274 21.8372 41.9574C22.7422 40.9141 23.5517 39.8052 24.2381 38.6063C25.0727 37.1484 25.7205 35.6133 26.1699 33.995Z" fill="white"/>
<path d="M39.1718 31.3395C38.7726 30.56 38.5265 29.7193 38.2136 28.9062C37.7103 27.6013 37.2278 26.2885 36.7361 24.9794C38.0274 24.9347 39.2998 24.7498 40.5575 24.4602C40.7914 24.4057 40.8092 24.5288 40.7896 24.6935C40.6696 25.6732 40.5532 26.6523 40.3303 27.6154C40.0364 28.886 39.677 30.1351 39.1718 31.3395Z" fill="white"/>
<path d="M28.1211 40.4726C28.4163 41.2197 28.7126 41.9667 29.0077 42.7137C28.2222 43.1937 27.3845 43.5709 26.531 43.9059C25.3143 44.3847 24.0713 44.787 22.8014 45.1029C21.8719 45.3344 20.9332 45.5199 19.9382 45.6913C20.1464 45.4476 20.4115 45.4115 20.6326 45.3142C22.6814 44.4073 24.6028 43.2874 26.3803 41.9226C26.9804 41.4627 27.5621 40.9815 28.1211 40.4726Z" fill="white"/>
</svg>
