<svg width="34" height="34" viewBox="0 0 34 34" fill="none" xmlns="http://www.w3.org/2000/svg">
<path d="M10.4122 27.7592L10.9704 28.0924C13.0204 29.3137 15.3523 29.9597 17.7131 29.9597C24.996 29.9597 30.9212 24.0345 30.9212 16.7512C30.9212 9.46794 24.996 3.54306 17.7131 3.54306C10.4305 3.54306 4.50494 9.46794 4.50494 16.7512C4.50494 19.1559 5.17306 21.524 6.43655 23.5994L6.77922 24.1617L5.4595 29.0863L10.4122 27.7592ZM1.10529 33.4402L3.46954 24.6193C2.13119 22.2041 1.42652 19.4982 1.42652 16.7512C1.42652 7.77075 8.73298 0.46429 17.7131 0.46429C26.6935 0.46429 34 7.77075 34 16.7512C34 25.7317 26.6935 33.0381 17.7131 33.0381C15.0174 33.0381 12.3544 32.3573 9.97152 31.0647L1.10529 33.4402Z" fill="#6D6868"/>
<path d="M17.2465 23.6951C17.5902 23.4227 17.8879 23.1011 18.181 22.7792C18.5131 22.4147 18.8263 22.032 19.1103 21.6268C19.5619 20.9822 19.9527 20.3056 20.2718 19.5845C20.5421 18.9743 20.7477 18.3459 20.9016 17.6999C20.9758 17.3882 21.0218 17.0694 21.0781 16.7538C21.0995 16.634 21.0739 16.5756 20.9224 16.5732C20.3439 16.5633 19.7699 16.4997 19.1946 16.4312C17.8777 16.2741 16.5994 15.9655 15.3493 15.5311C15.1135 15.4492 14.8815 15.3564 14.6478 15.2689C14.4956 14.7516 14.2679 14.2613 14.1023 13.7492C14.0145 13.4772 13.8524 13.2283 13.8401 12.9321C14.7188 13.3482 15.6154 13.7232 16.5425 14.0131C17.4148 14.2862 18.2994 14.5175 19.209 14.6451C19.6859 14.7115 20.1632 14.7621 20.643 14.805C21.0795 14.844 21.5149 14.8194 21.9497 14.8394C22.0344 14.8433 22.1131 14.8278 22.1915 14.8022C22.4737 15.5536 22.7507 16.3071 23.0392 17.0561C23.2192 17.5228 23.3604 18.0054 23.5896 18.4528C23.2023 19.447 22.6899 20.3759 22.0745 21.2437C21.7339 21.7241 21.348 22.1719 20.9375 22.5996C20.2852 23.279 19.565 23.8712 18.7816 24.3889C18.4523 24.6064 18.1191 24.8215 17.7554 24.9814C17.586 24.5527 17.4159 24.1239 17.2465 23.6951Z" fill="#6D6868"/>
<path d="M15.8211 19.2059C15.3069 19.0921 14.8173 18.9037 14.3253 18.7202C13.6554 18.4707 13.0168 18.153 12.3856 17.8205C11.6454 17.4304 10.958 16.9608 10.3043 16.4386C9.87092 16.0924 9.47448 15.7068 9.09877 15.303C8.59443 14.7614 8.16846 14.159 7.8047 13.513C7.50139 12.9739 7.26451 12.4077 7.07859 11.819C7.06277 11.7691 7.05117 11.7174 7.06804 11.6535C7.21952 11.8457 7.36643 12.0415 7.52389 12.2288C7.93579 12.7191 8.3586 13.1971 8.8401 13.6251C9.2513 13.9903 9.6611 14.3555 10.1025 14.6834C10.6803 15.1129 11.2827 15.5037 11.9132 15.8548C12.8123 16.3556 13.7595 16.738 14.7326 17.0627C14.862 17.106 15.0071 17.1046 15.1196 17.1956C15.1207 17.3341 15.1843 17.455 15.2289 17.5811C15.4229 18.1241 15.6528 18.6538 15.8211 19.2059Z" fill="#6D6868"/>
<path d="M20.8016 10.9999C21.1316 10.8494 21.489 10.796 21.8405 10.7349C22.3251 10.6505 22.8186 10.6133 23.3106 10.6263C24.2409 10.6502 25.1544 10.7739 26.0014 11.1998C26.0355 11.2171 26.0706 11.2332 26.1037 11.2526C26.1996 11.3098 26.2952 11.3685 26.4323 11.4518C26.1613 11.4613 25.9409 11.4968 25.7251 11.571C25.2271 11.7418 24.9505 12.1112 24.7906 12.5867C24.74 12.7368 24.7003 12.8928 24.6803 13.0496C24.6662 13.161 24.6075 13.2063 24.5168 13.2341C23.9984 13.3926 23.4741 13.5163 22.9307 13.5602C22.5423 13.5919 22.1554 13.6326 21.7653 13.6281C21.7621 13.5964 21.7656 13.562 21.7551 13.5332C21.4384 12.6883 21.1196 11.8441 20.8016 10.9999Z" fill="#6D6868"/>
<path d="M15.8211 19.2059C15.6527 18.6538 15.4229 18.1241 15.2289 17.5811C15.1842 17.455 15.1206 17.3341 15.1196 17.1956C15.4745 17.2782 15.8285 17.3657 16.1845 17.4419C16.6284 17.5372 17.0751 17.6131 17.5271 17.6651C18.0595 17.727 18.5909 17.785 19.1279 17.7786C19.2633 17.7772 19.3209 17.8229 19.2734 17.9941C18.9048 19.3251 18.2799 20.526 17.4694 21.637C17.3281 21.831 17.1911 22.0285 17.0171 22.1965C16.8175 21.6619 16.6256 21.1242 16.4147 20.5942C16.331 20.3844 16.3029 20.1447 16.1265 19.977C16.1697 19.8013 16.1989 19.6203 16.2618 19.4519C16.3057 19.3338 16.2337 19.3128 16.1666 19.291C16.0544 19.2541 15.9367 19.2333 15.8211 19.2059Z" fill="#6D6868"/>
<path d="M13.84 12.932C13.8523 13.2282 14.0143 13.4771 14.1022 13.7491C14.2681 14.2612 14.4955 14.7515 14.648 15.2688C13.9279 15.0105 13.2562 14.6527 12.5966 14.2717C12.0051 13.9304 11.4526 13.5308 10.9303 13.095C10.4421 12.6877 9.99577 12.2336 9.57297 11.756C8.90484 11.001 8.3766 10.1568 7.93025 9.25781C7.88526 9.16784 7.84133 9.07716 7.83606 8.96013C8.12988 9.20509 8.41069 9.44303 8.69537 9.67605C9.49951 10.3343 10.3543 10.9223 11.2308 11.4794C12.0578 12.0048 12.9181 12.4694 13.8 12.8951C13.8158 12.9028 13.8267 12.9193 13.84 12.932Z" fill="#6D6868"/>
<path d="M20.8015 10.9998C21.1196 11.8441 21.4384 12.6883 21.755 13.5332C21.7656 13.562 21.7621 13.5964 21.7652 13.6281C20.3745 13.6105 18.9961 13.4776 17.6159 13.194C17.876 12.8042 18.199 12.4985 18.5374 12.2145C19.0119 11.8159 19.5468 11.5049 20.1141 11.255C20.3376 11.1562 20.5594 11.0487 20.8015 10.9998Z" fill="#6D6868"/>
<path d="M16.1265 19.977C16.303 20.1446 16.3311 20.3843 16.4147 20.5941C16.6256 21.1245 16.8175 21.6618 17.0171 22.1964C16.7725 22.5612 16.4597 22.8666 16.1385 23.1598C15.6387 23.6152 15.1017 24.025 14.5288 24.3874C14.1183 24.6468 13.6867 24.8654 13.2534 25.0822C13.221 25.0984 13.1933 25.0998 13.1476 25.0833C13.3022 24.891 13.4822 24.729 13.6396 24.5473C14.1591 23.9484 14.6237 23.3119 15.0177 22.6238C15.4967 21.787 15.8686 20.9059 16.1265 19.977Z" fill="#6D6868"/>
<path d="M23.5895 18.4527C23.3604 18.0053 23.2191 17.5227 23.0395 17.056C22.7506 16.307 22.4736 15.5535 22.1914 14.8021C22.9326 14.7764 23.663 14.6703 24.3849 14.5041C24.5191 14.4728 24.5293 14.5434 24.5181 14.638C24.4492 15.2003 24.3824 15.7623 24.2545 16.3151C24.0858 17.0444 23.8795 17.7614 23.5895 18.4527Z" fill="#6D6868"/>
<path d="M17.2465 23.6951C17.4159 24.1239 17.586 24.5526 17.7554 24.9814C17.3045 25.257 16.8237 25.4735 16.3338 25.6657C15.6354 25.9405 14.922 26.1714 14.193 26.3528C13.6595 26.4857 13.1207 26.5921 12.5496 26.6906C12.6691 26.5507 12.8213 26.5299 12.9482 26.4741C14.1242 25.9535 15.227 25.3107 16.2473 24.5273C16.5917 24.2634 16.9256 23.9871 17.2465 23.6951" fill="#6D6868"/>
<path d="M10.2934 27.4056L10.8515 27.7388C12.9016 28.9601 15.2335 29.6061 17.5942 29.6061C24.8772 29.6061 30.8024 23.6808 30.8024 16.3976C30.8024 9.1143 24.8772 3.18942 17.5942 3.18942C10.3117 3.18942 4.3861 9.1143 4.3861 16.3976C4.3861 18.8022 5.05422 21.1704 6.31772 23.2457L6.66039 23.8081L5.34066 28.7327L10.2934 27.4056ZM0.98645 33.0865L3.35071 24.2657C2.01236 21.8504 1.30768 19.1446 1.30768 16.3976C1.30768 7.41711 8.61414 0.110652 17.5942 0.110652C26.5747 0.110652 33.8812 7.41711 33.8812 16.3976C33.8812 25.378 26.5747 32.6845 17.5942 32.6845C14.8986 32.6845 12.2356 32.0037 9.85268 30.711L0.98645 33.0865Z" fill="white"/>
<path d="M17.1276 23.3415C17.4714 23.0691 17.7691 22.7475 18.0622 22.4256C18.3943 22.0611 18.7074 21.6784 18.9914 21.2731C19.443 20.6286 19.8339 19.952 20.153 19.2308C20.4233 18.6207 20.6289 17.9923 20.7828 17.3463C20.857 17.0346 20.903 16.7158 20.9592 16.4002C20.9807 16.2803 20.955 16.222 20.8035 16.2195C20.225 16.2097 19.6511 16.1461 19.0758 16.0775C17.7589 15.9204 16.4806 15.6119 15.2305 15.1775C14.9946 15.0956 14.7627 15.0028 14.529 14.9153C14.3768 14.3979 14.149 13.9076 13.9835 13.3956C13.8956 13.1235 13.7336 12.8747 13.7213 12.5784C14.6 12.9945 15.4965 13.3696 16.4237 13.6595C17.296 13.9326 18.1806 14.1639 19.0902 14.2914C19.5671 14.3579 20.0444 14.4085 20.5241 14.4513C20.9606 14.4904 21.3961 14.4658 21.8309 14.4858C21.9156 14.4897 21.9943 14.4742 22.0727 14.4485C22.3549 15.1999 22.6318 15.9535 22.9204 16.7024C23.1003 17.1692 23.2416 17.6517 23.4708 18.0991C23.0835 19.0934 22.571 20.0223 21.9556 20.8901C21.6151 21.3705 21.2292 21.8183 20.8187 22.246C20.1664 22.9253 19.4462 23.5176 18.6628 24.0352C18.3335 24.2528 18.0003 24.4679 17.6366 24.6278C17.4672 24.199 17.297 23.7703 17.1276 23.3415Z" fill="white"/>
<path d="M15.7022 18.8523C15.188 18.7384 14.6984 18.55 14.2064 18.3666C13.5365 18.117 12.8979 17.7993 12.2667 17.4668C11.5265 17.0767 10.8391 16.6072 10.1854 16.0849C9.75203 15.7387 9.35558 15.3532 8.97987 14.9494C8.47553 14.4078 8.04956 13.8054 7.6858 13.1594C7.3825 12.6202 7.14561 12.054 6.95969 11.4654C6.94388 11.4154 6.93228 11.3638 6.94915 11.2998C7.10063 11.4921 7.24754 11.6878 7.40499 11.8752C7.8169 12.3654 8.2397 12.8434 8.7212 13.2715C9.13241 13.6367 9.54221 14.0018 9.98364 14.3297C10.5614 14.7592 11.1638 15.15 11.7943 15.5011C12.6934 16.002 13.6406 16.3844 14.6137 16.7091C14.7431 16.7523 14.8882 16.7509 15.0007 16.842C15.0018 16.9804 15.0654 17.1013 15.11 17.2275C15.304 17.7705 15.5339 18.3002 15.7022 18.8523Z" fill="white"/>
<path d="M20.6827 10.6462C21.0128 10.4957 21.3702 10.4423 21.7216 10.3812C22.2063 10.2968 22.6998 10.2596 23.1918 10.2726C24.1221 10.2965 25.0355 10.4202 25.8826 10.8461C25.9167 10.8634 25.9518 10.8795 25.9848 10.8989C26.0808 10.9561 26.1764 11.0148 26.3134 11.0981C26.0425 11.1076 25.8221 11.1431 25.6063 11.2173C25.1083 11.3881 24.8317 11.7575 24.6718 12.233C24.6212 12.3831 24.5815 12.5391 24.5614 12.6959C24.5474 12.8073 24.4887 12.8526 24.398 12.8804C23.8796 13.0389 23.3552 13.1626 22.8119 13.2065C22.4235 13.2382 22.0366 13.2789 21.6464 13.2744C21.6433 13.2427 21.6468 13.2083 21.6362 13.1795C21.3196 12.3346 21.0008 11.4904 20.6827 10.6462Z" fill="white"/>
<path d="M15.7022 18.8523C15.5338 18.3002 15.304 17.7706 15.11 17.2276C15.0653 17.1014 15.0017 16.9805 15.0007 16.842C15.3556 16.9246 15.7096 17.0121 16.0656 17.0884C16.5095 17.1836 16.9562 17.2595 17.4082 17.3115C17.9406 17.3734 18.472 17.4314 19.009 17.4251C19.1444 17.4237 19.202 17.4694 19.1546 17.6405C18.7859 18.9715 18.161 20.1724 17.3505 21.2834C17.2092 21.4774 17.0722 21.6749 16.8982 21.8429C16.6986 21.3083 16.5067 20.7706 16.2958 20.2406C16.2121 20.0308 16.184 19.7911 16.0076 19.6234C16.0508 19.4477 16.08 19.2667 16.1429 19.0984C16.1868 18.9803 16.1148 18.9592 16.0477 18.9374C15.9355 18.9005 15.8178 18.8798 15.7022 18.8523Z" fill="white"/>
<path d="M13.7212 12.5785C13.7335 12.8748 13.8955 13.1236 13.9834 13.3956C14.1493 13.9077 14.3766 14.398 14.5292 14.9153C13.809 14.657 13.1374 14.2992 12.4777 13.9183C11.8862 13.577 11.3337 13.1774 10.8115 12.7416C10.3233 12.3342 9.87693 11.8802 9.45413 11.4025C8.78601 10.6476 8.25777 9.80339 7.81141 8.90436C7.76643 8.81438 7.7225 8.72371 7.71722 8.60667C8.01104 8.85164 8.29186 9.08958 8.57654 9.32259C9.38068 9.98087 10.2354 10.5689 11.112 11.1259C11.9389 11.6514 12.7993 12.116 13.6811 12.5416C13.6969 12.5493 13.7078 12.5658 13.7212 12.5785Z" fill="white"/>
<path d="M20.6827 10.6464C21.0008 11.4906 21.3195 12.3348 21.6362 13.1797C21.6467 13.2085 21.6432 13.243 21.6464 13.2746C20.2557 13.257 18.8772 13.1242 17.4971 12.8405C17.7571 12.4508 18.0801 12.145 18.4186 11.861C18.8931 11.4625 19.428 11.1514 19.9952 10.9016C20.2188 10.8028 20.4405 10.6952 20.6827 10.6464Z" fill="white"/>
<path d="M16.0077 19.6234C16.1841 19.7911 16.2123 20.0308 16.2959 20.2406C16.5068 20.7709 16.6987 21.3083 16.8983 21.8429C16.6537 22.2077 16.3409 22.5131 16.0197 22.8062C15.5199 23.2617 14.9829 23.6715 14.41 24.0339C13.9995 24.2933 13.5679 24.5119 13.1345 24.7287C13.1022 24.7449 13.0744 24.7463 13.0287 24.7298C13.1834 24.5375 13.3633 24.3755 13.5208 24.1938C14.0402 23.5949 14.5049 22.9584 14.8989 22.2703C15.3779 21.4334 15.7497 20.5523 16.0077 19.6234Z" fill="white"/>
<path d="M23.4707 18.0991C23.2415 17.6517 23.1002 17.1692 22.9206 16.7024C22.6317 15.9535 22.3548 15.1999 22.0726 14.4485C22.8138 14.4229 23.5441 14.3167 24.266 14.1505C24.4003 14.1192 24.4105 14.1899 24.3992 14.2844C24.3303 14.8467 24.2636 15.4087 24.1356 15.9616C23.9669 16.6908 23.7606 17.4078 23.4707 18.0991Z" fill="white"/>
<path d="M17.1276 23.3415C17.297 23.7703 17.4671 24.1991 17.6365 24.6278C17.1856 24.9034 16.7048 25.1199 16.2149 25.3121C15.5165 25.587 14.8031 25.8179 14.0741 25.9992C13.5406 26.1321 13.0018 26.2386 12.4307 26.337C12.5502 26.1971 12.7024 26.1764 12.8293 26.1205C14.0053 25.6 15.1081 24.9572 16.1284 24.1738C16.4728 23.9098 16.8067 23.6336 17.1276 23.3415" fill="white"/>
</svg>
