<svg width="1440" height="726" viewBox="0 0 1440 726" fill="none" xmlns="http://www.w3.org/2000/svg">
<path d="M0 -1H1440V508.706C892.455 687.452 578.094 698.659 0 508.706V-1Z" fill="url(#paint0_linear)"/>
<path d="M613.277 237.967V255H603.316V206.656H622.176C625.806 206.656 628.993 207.32 631.738 208.648C634.505 209.977 636.63 211.869 638.113 214.326C639.596 216.761 640.338 219.539 640.338 222.66C640.338 227.397 638.711 231.138 635.457 233.883C632.225 236.605 627.743 237.967 622.01 237.967H613.277ZM613.277 229.898H622.176C624.81 229.898 626.813 229.279 628.186 228.039C629.58 226.799 630.277 225.029 630.277 222.727C630.277 220.358 629.58 218.443 628.186 216.982C626.791 215.521 624.865 214.769 622.408 214.725H613.277V229.898ZM658.323 222.992C660.869 219.938 664.068 218.41 667.919 218.41C675.711 218.41 679.662 222.937 679.773 231.99V255H670.177V232.256C670.177 230.197 669.734 228.681 668.849 227.707C667.963 226.711 666.491 226.213 664.433 226.213C661.622 226.213 659.585 227.298 658.323 229.467V255H648.728V204H658.323V222.992ZM687.897 236.705C687.897 233.141 688.583 229.965 689.955 227.176C691.328 224.387 693.298 222.229 695.865 220.701C698.455 219.174 701.455 218.41 704.864 218.41C709.711 218.41 713.662 219.893 716.717 222.859C719.794 225.826 721.509 229.854 721.864 234.945L721.93 237.402C721.93 242.914 720.392 247.341 717.315 250.684C714.238 254.004 710.11 255.664 704.93 255.664C699.75 255.664 695.611 254.004 692.512 250.684C689.435 247.363 687.897 242.848 687.897 237.137V236.705ZM697.492 237.402C697.492 240.811 698.134 243.423 699.418 245.238C700.702 247.031 702.539 247.928 704.93 247.928C707.254 247.928 709.069 247.042 710.375 245.271C711.681 243.479 712.334 240.623 712.334 236.705C712.334 233.363 711.681 230.773 710.375 228.936C709.069 227.098 707.232 226.18 704.864 226.18C702.517 226.18 700.702 227.098 699.418 228.936C698.134 230.751 697.492 233.573 697.492 237.402ZM741.708 210.242V219.074H747.851V226.113H741.708V244.043C741.708 245.371 741.963 246.323 742.472 246.898C742.981 247.474 743.955 247.762 745.394 247.762C746.456 247.762 747.397 247.684 748.216 247.529V254.801C746.335 255.376 744.398 255.664 742.406 255.664C735.676 255.664 732.245 252.266 732.113 245.471V226.113H726.867V219.074H732.113V210.242H741.708ZM753.086 236.705C753.086 233.141 753.773 229.965 755.145 227.176C756.517 224.387 758.487 222.229 761.055 220.701C763.645 219.174 766.644 218.41 770.053 218.41C774.901 218.41 778.852 219.893 781.907 222.859C784.984 225.826 786.699 229.854 787.053 234.945L787.12 237.402C787.12 242.914 785.581 247.341 782.504 250.684C779.428 254.004 775.299 255.664 770.12 255.664C764.94 255.664 760.801 254.004 757.702 250.684C754.625 247.363 753.086 242.848 753.086 237.137V236.705ZM762.682 237.402C762.682 240.811 763.324 243.423 764.608 245.238C765.892 247.031 767.729 247.928 770.12 247.928C772.444 247.928 774.259 247.042 775.565 245.271C776.871 243.479 777.524 240.623 777.524 236.705C777.524 233.363 776.871 230.773 775.565 228.936C774.259 227.098 772.422 226.18 770.053 226.18C767.707 226.18 765.892 227.098 764.608 228.936C763.324 230.751 762.682 233.573 762.682 237.402Z" fill="#F7FAFC"/>
<path d="M853.305 238.896C852.929 244.098 851.003 248.193 847.528 251.182C844.075 254.17 839.515 255.664 833.848 255.664C827.65 255.664 822.77 253.583 819.206 249.422C815.664 245.238 813.893 239.505 813.893 232.223V229.268C813.893 224.619 814.712 220.524 816.35 216.982C817.988 213.441 820.324 210.729 823.356 208.848C826.411 206.944 829.953 205.992 833.981 205.992C839.559 205.992 844.053 207.486 847.462 210.475C850.87 213.463 852.841 217.658 853.372 223.059H843.411C843.167 219.938 842.293 217.68 840.788 216.285C839.305 214.868 837.036 214.16 833.981 214.16C830.661 214.16 828.171 215.355 826.51 217.746C824.872 220.115 824.031 223.8 823.987 228.803V232.455C823.987 237.679 824.773 241.497 826.344 243.91C827.938 246.323 830.44 247.529 833.848 247.529C836.925 247.529 839.216 246.832 840.721 245.438C842.249 244.021 843.123 241.84 843.344 238.896H853.305ZM875.242 206.656L887.66 241.719L900.012 206.656H913.094V255H903.099V241.785L904.096 218.975L891.047 255H884.207L871.191 219.008L872.187 241.785V255H862.226V206.656H875.242ZM949.241 242.316C949.241 240.435 948.577 238.996 947.249 238C945.921 236.982 943.53 235.919 940.077 234.812C936.624 233.684 933.89 232.577 931.876 231.492C926.386 228.526 923.642 224.531 923.642 219.506C923.642 216.894 924.372 214.57 925.833 212.533C927.316 210.475 929.43 208.87 932.175 207.719C934.942 206.568 938.041 205.992 941.472 205.992C944.925 205.992 948.002 206.623 950.702 207.885C953.403 209.124 955.494 210.884 956.978 213.164C958.483 215.444 959.235 218.034 959.235 220.934H949.274C949.274 218.72 948.577 217.005 947.183 215.787C945.788 214.548 943.829 213.928 941.306 213.928C938.871 213.928 936.978 214.448 935.628 215.488C934.278 216.507 933.603 217.857 933.603 219.539C933.603 221.111 934.388 222.428 935.96 223.49C937.554 224.553 939.889 225.549 942.966 226.479C948.632 228.183 952.761 230.297 955.351 232.82C957.94 235.344 959.235 238.487 959.235 242.25C959.235 246.434 957.653 249.721 954.487 252.111C951.322 254.48 947.061 255.664 941.704 255.664C937.985 255.664 934.599 254.989 931.544 253.639C928.489 252.266 926.154 250.396 924.538 248.027C922.944 245.659 922.147 242.914 922.147 239.793H932.142C932.142 245.128 935.329 247.795 941.704 247.795C944.073 247.795 945.921 247.319 947.249 246.367C948.577 245.393 949.241 244.043 949.241 242.316Z" fill="#2D3748"/>
<path d="M611.323 287.977H606.549V293H605.049V281.625H612.096V282.859H606.549V286.75H611.323V287.977ZM621.309 285.844C621.09 285.807 620.853 285.789 620.598 285.789C619.65 285.789 619.007 286.193 618.668 287V293H617.223V284.547H618.629L618.653 285.523C619.127 284.768 619.799 284.391 620.668 284.391C620.95 284.391 621.163 284.427 621.309 284.5V285.844ZM629.757 293.156C628.611 293.156 627.678 292.781 626.96 292.031C626.241 291.276 625.882 290.268 625.882 289.008V288.742C625.882 287.904 626.04 287.156 626.358 286.5C626.681 285.839 627.129 285.323 627.702 284.953C628.28 284.578 628.905 284.391 629.577 284.391C630.676 284.391 631.53 284.753 632.139 285.477C632.749 286.201 633.053 287.237 633.053 288.586V289.188H627.327C627.348 290.021 627.59 290.695 628.053 291.211C628.522 291.721 629.116 291.977 629.835 291.977C630.345 291.977 630.777 291.872 631.132 291.664C631.486 291.456 631.796 291.18 632.061 290.836L632.944 291.523C632.236 292.612 631.173 293.156 629.757 293.156ZM629.577 285.578C628.994 285.578 628.504 285.792 628.108 286.219C627.712 286.641 627.468 287.234 627.374 288H631.608V287.891C631.566 287.156 631.369 286.589 631.014 286.188C630.66 285.781 630.181 285.578 629.577 285.578ZM643.415 290.758C643.415 290.367 643.267 290.065 642.97 289.852C642.678 289.633 642.165 289.445 641.431 289.289C640.701 289.133 640.121 288.945 639.688 288.727C639.261 288.508 638.944 288.247 638.735 287.945C638.532 287.643 638.431 287.284 638.431 286.867C638.431 286.174 638.722 285.589 639.306 285.109C639.894 284.63 640.644 284.391 641.556 284.391C642.514 284.391 643.29 284.638 643.884 285.133C644.483 285.628 644.782 286.26 644.782 287.031H643.329C643.329 286.635 643.16 286.294 642.821 286.008C642.488 285.721 642.066 285.578 641.556 285.578C641.03 285.578 640.618 285.693 640.321 285.922C640.024 286.151 639.876 286.451 639.876 286.82C639.876 287.169 640.014 287.432 640.29 287.609C640.566 287.786 641.063 287.956 641.782 288.117C642.506 288.279 643.092 288.471 643.54 288.695C643.988 288.919 644.319 289.19 644.532 289.508C644.751 289.82 644.86 290.203 644.86 290.656C644.86 291.411 644.558 292.018 643.954 292.477C643.35 292.93 642.566 293.156 641.603 293.156C640.925 293.156 640.326 293.036 639.806 292.797C639.285 292.557 638.876 292.224 638.579 291.797C638.287 291.365 638.142 290.898 638.142 290.398H639.587C639.613 290.883 639.806 291.268 640.165 291.555C640.53 291.836 641.009 291.977 641.603 291.977C642.149 291.977 642.587 291.867 642.915 291.648C643.248 291.424 643.415 291.128 643.415 290.758ZM651.948 285.57C652.589 284.784 653.422 284.391 654.448 284.391C656.235 284.391 657.136 285.398 657.152 287.414V293H655.706V287.406C655.701 286.797 655.56 286.346 655.284 286.055C655.014 285.763 654.589 285.617 654.011 285.617C653.542 285.617 653.131 285.742 652.777 285.992C652.422 286.242 652.146 286.57 651.948 286.977V293H650.503V281H651.948V285.57ZM672.172 284.547L672.218 285.609C672.864 284.797 673.708 284.391 674.75 284.391C676.536 284.391 677.437 285.398 677.453 287.414V293H676.007V287.406C676.002 286.797 675.862 286.346 675.586 286.055C675.315 285.763 674.89 285.617 674.312 285.617C673.843 285.617 673.432 285.742 673.078 285.992C672.724 286.242 672.448 286.57 672.25 286.977V293H670.804V284.547H672.172ZM686.9 293.156C685.754 293.156 684.822 292.781 684.103 292.031C683.385 291.276 683.025 290.268 683.025 289.008V288.742C683.025 287.904 683.184 287.156 683.502 286.5C683.825 285.839 684.273 285.323 684.846 284.953C685.424 284.578 686.049 284.391 686.721 284.391C687.82 284.391 688.674 284.753 689.283 285.477C689.893 286.201 690.197 287.237 690.197 288.586V289.188H684.471C684.491 290.021 684.734 290.695 685.197 291.211C685.666 291.721 686.26 291.977 686.978 291.977C687.489 291.977 687.921 291.872 688.275 291.664C688.629 291.456 688.939 291.18 689.205 290.836L690.088 291.523C689.379 292.612 688.317 293.156 686.9 293.156ZM686.721 285.578C686.137 285.578 685.648 285.792 685.252 286.219C684.856 286.641 684.611 287.234 684.518 288H688.752V287.891C688.71 287.156 688.512 286.589 688.158 286.188C687.804 285.781 687.325 285.578 686.721 285.578ZM703.121 291.008L704.746 284.547H706.192L703.731 293H702.559L700.504 286.594L698.504 293H697.332L694.879 284.547H696.317L697.981 290.875L699.949 284.547H701.113L703.121 291.008ZM726.641 291.008L728.266 284.547H729.712L727.251 293H726.079L724.024 286.594L722.024 293H720.852L718.399 284.547H719.837L721.501 290.875L723.469 284.547H724.633L726.641 291.008ZM740.167 293C740.084 292.833 740.016 292.536 739.964 292.109C739.292 292.807 738.49 293.156 737.557 293.156C736.724 293.156 736.039 292.922 735.503 292.453C734.972 291.979 734.706 291.38 734.706 290.656C734.706 289.776 735.039 289.094 735.706 288.609C736.378 288.12 737.321 287.875 738.534 287.875H739.94V287.211C739.94 286.706 739.789 286.305 739.487 286.008C739.185 285.706 738.74 285.555 738.151 285.555C737.636 285.555 737.203 285.685 736.854 285.945C736.505 286.206 736.331 286.521 736.331 286.891H734.878C734.878 286.469 735.026 286.062 735.323 285.672C735.625 285.276 736.031 284.964 736.542 284.734C737.057 284.505 737.623 284.391 738.237 284.391C739.211 284.391 739.974 284.635 740.526 285.125C741.078 285.609 741.365 286.279 741.386 287.133V291.023C741.386 291.799 741.485 292.417 741.682 292.875V293H740.167ZM737.768 291.898C738.222 291.898 738.651 291.781 739.057 291.547C739.464 291.312 739.758 291.008 739.94 290.633V288.898H738.807C737.037 288.898 736.151 289.417 736.151 290.453C736.151 290.906 736.302 291.26 736.604 291.516C736.906 291.771 737.294 291.898 737.768 291.898ZM750.052 290.883L752.021 284.547H753.568L750.169 294.305C749.643 295.711 748.807 296.414 747.661 296.414L747.388 296.391L746.849 296.289V295.117L747.239 295.148C747.729 295.148 748.109 295.049 748.38 294.852C748.656 294.654 748.883 294.292 749.06 293.766L749.38 292.906L746.364 284.547H747.943L750.052 290.883ZM768.314 282.5V284.547H769.892V285.664H768.314V290.906C768.314 291.245 768.384 291.5 768.525 291.672C768.666 291.839 768.905 291.922 769.244 291.922C769.41 291.922 769.64 291.891 769.931 291.828V293C769.551 293.104 769.181 293.156 768.822 293.156C768.176 293.156 767.689 292.961 767.361 292.57C767.033 292.18 766.869 291.625 766.869 290.906V285.664H765.33V284.547H766.869V282.5H768.314ZM774.808 288.695C774.808 287.867 774.97 287.122 775.293 286.461C775.621 285.799 776.074 285.289 776.652 284.93C777.236 284.57 777.9 284.391 778.644 284.391C779.795 284.391 780.725 284.789 781.433 285.586C782.147 286.383 782.504 287.443 782.504 288.766V288.867C782.504 289.69 782.345 290.43 782.027 291.086C781.715 291.737 781.264 292.245 780.676 292.609C780.092 292.974 779.42 293.156 778.66 293.156C777.514 293.156 776.584 292.758 775.871 291.961C775.163 291.164 774.808 290.109 774.808 288.797V288.695ZM776.262 288.867C776.262 289.805 776.478 290.557 776.91 291.125C777.348 291.693 777.931 291.977 778.66 291.977C779.394 291.977 779.978 291.69 780.41 291.117C780.842 290.539 781.058 289.732 781.058 288.695C781.058 287.768 780.837 287.018 780.394 286.445C779.957 285.867 779.374 285.578 778.644 285.578C777.931 285.578 777.355 285.862 776.918 286.43C776.48 286.997 776.262 287.81 776.262 288.867ZM800.727 290.758C800.727 290.367 800.578 290.065 800.282 289.852C799.99 289.633 799.477 289.445 798.742 289.289C798.013 289.133 797.433 288.945 797 288.727C796.573 288.508 796.256 288.247 796.047 287.945C795.844 287.643 795.742 287.284 795.742 286.867C795.742 286.174 796.034 285.589 796.617 285.109C797.206 284.63 797.956 284.391 798.867 284.391C799.826 284.391 800.602 284.638 801.196 285.133C801.795 285.628 802.094 286.26 802.094 287.031H800.641C800.641 286.635 800.472 286.294 800.133 286.008C799.8 285.721 799.378 285.578 798.867 285.578C798.341 285.578 797.93 285.693 797.633 285.922C797.336 286.151 797.188 286.451 797.188 286.82C797.188 287.169 797.326 287.432 797.602 287.609C797.878 287.786 798.375 287.956 799.094 288.117C799.818 288.279 800.404 288.471 800.852 288.695C801.3 288.919 801.631 289.19 801.844 289.508C802.063 289.82 802.172 290.203 802.172 290.656C802.172 291.411 801.87 292.018 801.266 292.477C800.662 292.93 799.878 293.156 798.914 293.156C798.237 293.156 797.638 293.036 797.117 292.797C796.597 292.557 796.188 292.224 795.891 291.797C795.599 291.365 795.453 290.898 795.453 290.398H796.899C796.925 290.883 797.117 291.268 797.477 291.555C797.841 291.836 798.321 291.977 798.914 291.977C799.461 291.977 799.899 291.867 800.227 291.648C800.56 291.424 800.727 291.128 800.727 290.758ZM809.26 285.57C809.901 284.784 810.734 284.391 811.76 284.391C813.547 284.391 814.448 285.398 814.463 287.414V293H813.018V287.406C813.013 286.797 812.872 286.346 812.596 286.055C812.325 285.763 811.901 285.617 811.323 285.617C810.854 285.617 810.443 285.742 810.088 285.992C809.734 286.242 809.458 286.57 809.26 286.977V293H807.815V281H809.26V285.57ZM825.606 293C825.523 292.833 825.455 292.536 825.403 292.109C824.731 292.807 823.929 293.156 822.997 293.156C822.164 293.156 821.479 292.922 820.942 292.453C820.411 291.979 820.145 291.38 820.145 290.656C820.145 289.776 820.479 289.094 821.145 288.609C821.817 288.12 822.76 287.875 823.973 287.875H825.38V287.211C825.38 286.706 825.229 286.305 824.927 286.008C824.624 285.706 824.179 285.555 823.591 285.555C823.075 285.555 822.643 285.685 822.294 285.945C821.945 286.206 821.77 286.521 821.77 286.891H820.317C820.317 286.469 820.466 286.062 820.762 285.672C821.065 285.276 821.471 284.964 821.981 284.734C822.497 284.505 823.062 284.391 823.677 284.391C824.651 284.391 825.414 284.635 825.966 285.125C826.518 285.609 826.804 286.279 826.825 287.133V291.023C826.825 291.799 826.924 292.417 827.122 292.875V293H825.606ZM823.208 291.898C823.661 291.898 824.091 291.781 824.497 291.547C824.903 291.312 825.197 291.008 825.38 290.633V288.898H824.247C822.476 288.898 821.591 289.417 821.591 290.453C821.591 290.906 821.742 291.26 822.044 291.516C822.346 291.771 822.734 291.898 823.208 291.898ZM836.937 285.844C836.718 285.807 836.481 285.789 836.226 285.789C835.278 285.789 834.634 286.193 834.296 287V293H832.851V284.547H834.257L834.28 285.523C834.754 284.768 835.426 284.391 836.296 284.391C836.577 284.391 836.791 284.427 836.937 284.5V285.844ZM845.384 293.156C844.238 293.156 843.306 292.781 842.587 292.031C841.868 291.276 841.509 290.268 841.509 289.008V288.742C841.509 287.904 841.668 287.156 841.986 286.5C842.309 285.839 842.756 285.323 843.329 284.953C843.908 284.578 844.533 284.391 845.204 284.391C846.303 284.391 847.158 284.753 847.767 285.477C848.376 286.201 848.681 287.237 848.681 288.586V289.188H842.954C842.975 290.021 843.217 290.695 843.681 291.211C844.15 291.721 844.743 291.977 845.462 291.977C845.973 291.977 846.405 291.872 846.759 291.664C847.113 291.456 847.423 291.18 847.689 290.836L848.572 291.523C847.863 292.612 846.801 293.156 845.384 293.156ZM845.204 285.578C844.621 285.578 844.131 285.792 843.736 286.219C843.34 286.641 843.095 287.234 843.001 288H847.236V287.891C847.194 287.156 846.996 286.589 846.642 286.188C846.288 285.781 845.809 285.578 845.204 285.578ZM864.615 290.883L866.584 284.547H868.131L864.732 294.305C864.206 295.711 863.37 296.414 862.224 296.414L861.951 296.391L861.412 296.289V295.117L861.802 295.148C862.292 295.148 862.672 295.049 862.943 294.852C863.219 294.654 863.446 294.292 863.623 293.766L863.943 292.906L860.927 284.547H862.506L864.615 290.883ZM872.68 288.695C872.68 287.867 872.841 287.122 873.164 286.461C873.492 285.799 873.945 285.289 874.523 284.93C875.107 284.57 875.771 284.391 876.516 284.391C877.667 284.391 878.596 284.789 879.305 285.586C880.018 286.383 880.375 287.443 880.375 288.766V288.867C880.375 289.69 880.216 290.43 879.898 291.086C879.586 291.737 879.135 292.245 878.547 292.609C877.964 292.974 877.292 293.156 876.531 293.156C875.385 293.156 874.456 292.758 873.742 291.961C873.034 291.164 872.68 290.109 872.68 288.797V288.695ZM874.133 288.867C874.133 289.805 874.349 290.557 874.781 291.125C875.219 291.693 875.802 291.977 876.531 291.977C877.266 291.977 877.849 291.69 878.281 291.117C878.714 290.539 878.93 289.732 878.93 288.695C878.93 287.768 878.708 287.018 878.266 286.445C877.828 285.867 877.245 285.578 876.516 285.578C875.802 285.578 875.227 285.862 874.789 286.43C874.352 286.997 874.133 287.81 874.133 288.867ZM891.166 292.164C890.604 292.826 889.778 293.156 888.69 293.156C887.789 293.156 887.101 292.896 886.627 292.375C886.158 291.849 885.921 291.073 885.916 290.047V284.547H887.362V290.008C887.362 291.289 887.882 291.93 888.924 291.93C890.028 291.93 890.763 291.518 891.127 290.695V284.547H892.573V293H891.198L891.166 292.164ZM902.622 285.844C902.403 285.807 902.166 285.789 901.911 285.789C900.963 285.789 900.319 286.193 899.981 287V293H898.536V284.547H899.942L899.965 285.523C900.439 284.768 901.111 284.391 901.981 284.391C902.262 284.391 902.476 284.427 902.622 284.5V285.844ZM920.368 290.758C920.368 290.367 920.22 290.065 919.923 289.852C919.631 289.633 919.118 289.445 918.384 289.289C917.655 289.133 917.074 288.945 916.642 288.727C916.214 288.508 915.897 288.247 915.688 287.945C915.485 287.643 915.384 287.284 915.384 286.867C915.384 286.174 915.675 285.589 916.259 285.109C916.847 284.63 917.597 284.391 918.509 284.391C919.467 284.391 920.243 284.638 920.837 285.133C921.436 285.628 921.735 286.26 921.735 287.031H920.282C920.282 286.635 920.113 286.294 919.774 286.008C919.441 285.721 919.019 285.578 918.509 285.578C917.983 285.578 917.571 285.693 917.274 285.922C916.978 286.151 916.829 286.451 916.829 286.82C916.829 287.169 916.967 287.432 917.243 287.609C917.519 287.786 918.017 287.956 918.735 288.117C919.459 288.279 920.045 288.471 920.493 288.695C920.941 288.919 921.272 289.19 921.485 289.508C921.704 289.82 921.813 290.203 921.813 290.656C921.813 291.411 921.511 292.018 920.907 292.477C920.303 292.93 919.519 293.156 918.556 293.156C917.879 293.156 917.28 293.036 916.759 292.797C916.238 292.557 915.829 292.224 915.532 291.797C915.241 291.365 915.095 290.898 915.095 290.398H916.54C916.566 290.883 916.759 291.268 917.118 291.555C917.483 291.836 917.962 291.977 918.556 291.977C919.103 291.977 919.54 291.867 919.868 291.648C920.201 291.424 920.368 291.128 920.368 290.758ZM929.417 282.5V284.547H930.995V285.664H929.417V290.906C929.417 291.245 929.487 291.5 929.628 291.672C929.769 291.839 930.008 291.922 930.347 291.922C930.514 291.922 930.743 291.891 931.034 291.828V293C930.654 293.104 930.284 293.156 929.925 293.156C929.279 293.156 928.792 292.961 928.464 292.57C928.136 292.18 927.972 291.625 927.972 290.906V285.664H926.433V284.547H927.972V282.5H929.417ZM935.912 288.695C935.912 287.867 936.073 287.122 936.396 286.461C936.724 285.799 937.177 285.289 937.755 284.93C938.339 284.57 939.003 284.391 939.747 284.391C940.899 284.391 941.828 284.789 942.537 285.586C943.25 286.383 943.607 287.443 943.607 288.766V288.867C943.607 289.69 943.448 290.43 943.13 291.086C942.818 291.737 942.367 292.245 941.779 292.609C941.195 292.974 940.524 293.156 939.763 293.156C938.617 293.156 937.688 292.758 936.974 291.961C936.266 291.164 935.912 290.109 935.912 288.797V288.695ZM937.365 288.867C937.365 289.805 937.581 290.557 938.013 291.125C938.451 291.693 939.034 291.977 939.763 291.977C940.497 291.977 941.081 291.69 941.513 291.117C941.945 290.539 942.162 289.732 942.162 288.695C942.162 287.768 941.94 287.018 941.497 286.445C941.06 285.867 940.477 285.578 939.747 285.578C939.034 285.578 938.458 285.862 938.021 286.43C937.583 286.997 937.365 287.81 937.365 288.867ZM953.265 285.844C953.047 285.807 952.81 285.789 952.554 285.789C951.606 285.789 950.963 286.193 950.625 287V293H949.179V284.547H950.586L950.609 285.523C951.083 284.768 951.755 284.391 952.625 284.391C952.906 284.391 953.119 284.427 953.265 284.5V285.844ZM961.267 290.883L963.236 284.547H964.783L961.385 294.305C960.859 295.711 960.023 296.414 958.877 296.414L958.603 296.391L958.064 296.289V295.117L958.455 295.148C958.945 295.148 959.325 295.049 959.596 294.852C959.872 294.654 960.098 294.292 960.275 293.766L960.596 292.906L957.58 284.547H959.158L961.267 290.883Z" fill="#FFFCFE"/>
<path d="M504.738 279.213L506.521 280.278C513.071 284.18 520.522 286.244 528.066 286.244C551.336 286.244 570.269 267.312 570.269 244.04C570.269 220.769 551.336 201.837 528.066 201.837C504.796 201.837 485.863 220.769 485.863 244.04C485.863 251.724 487.997 259.29 492.035 265.922L493.129 267.718L488.913 283.454L504.738 279.213ZM475 297.365L482.554 269.181C478.278 261.463 476.026 252.818 476.026 244.04C476.026 215.346 499.372 192 528.066 192C556.76 192 580.106 215.346 580.106 244.04C580.106 272.735 556.76 296.081 528.066 296.081C519.452 296.081 510.943 293.905 503.33 289.775L475 297.365Z" fill="white"/>
<path d="M526.575 266.228C527.673 265.357 528.624 264.33 529.561 263.301C530.622 262.137 531.623 260.914 532.53 259.619C533.973 257.559 535.222 255.398 536.242 253.093C537.105 251.144 537.762 249.136 538.254 247.072C538.491 246.076 538.638 245.057 538.818 244.049C538.886 243.666 538.804 243.479 538.32 243.471C536.472 243.44 534.638 243.237 532.8 243.018C528.592 242.516 524.507 241.53 520.513 240.142C519.759 239.88 519.018 239.584 518.272 239.304C517.785 237.651 517.058 236.084 516.529 234.448C516.248 233.579 515.73 232.784 515.691 231.837C518.498 233.167 521.363 234.365 524.326 235.292C527.113 236.164 529.939 236.903 532.846 237.311C534.37 237.523 535.895 237.685 537.427 237.822C538.822 237.946 540.214 237.868 541.603 237.932C541.873 237.944 542.125 237.895 542.375 237.813C543.277 240.214 544.162 242.621 545.084 245.014C545.659 246.506 546.11 248.048 546.843 249.477C545.605 252.654 543.968 255.622 542.001 258.395C540.913 259.93 539.68 261.361 538.368 262.727C536.284 264.898 533.983 266.79 531.48 268.444C530.428 269.14 529.363 269.827 528.201 270.338C527.66 268.968 527.116 267.598 526.575 266.228Z" fill="white"/>
<path d="M522.02 251.884C520.377 251.52 518.813 250.918 517.241 250.332C515.1 249.535 513.06 248.519 511.043 247.457C508.678 246.21 506.481 244.71 504.393 243.041C503.008 241.935 501.741 240.703 500.541 239.413C498.929 237.683 497.568 235.758 496.406 233.694C495.437 231.971 494.68 230.162 494.086 228.281C494.035 228.121 493.998 227.956 494.052 227.752C494.536 228.366 495.006 228.992 495.509 229.59C496.825 231.157 498.176 232.684 499.714 234.052C501.028 235.219 502.338 236.385 503.748 237.433C505.594 238.805 507.519 240.054 509.534 241.176C512.406 242.776 515.433 243.998 518.542 245.036C518.955 245.174 519.419 245.169 519.779 245.46C519.782 245.903 519.985 246.289 520.128 246.692C520.748 248.427 521.482 250.12 522.02 251.884Z" fill="white"/>
<path d="M537.934 225.664C538.988 225.183 540.13 225.012 541.253 224.817C542.802 224.547 544.378 224.428 545.951 224.47C548.923 224.546 551.842 224.942 554.548 226.303C554.657 226.358 554.769 226.409 554.875 226.471C555.182 226.654 555.487 226.842 555.925 227.108C555.059 227.138 554.355 227.252 553.666 227.488C552.074 228.034 551.19 229.215 550.679 230.734C550.518 231.213 550.391 231.712 550.327 232.213C550.282 232.569 550.094 232.714 549.805 232.802C548.148 233.309 546.473 233.704 544.737 233.845C543.496 233.946 542.259 234.076 541.013 234.061C541.003 233.96 541.014 233.85 540.98 233.758C539.968 231.058 538.95 228.361 537.934 225.664Z" fill="white"/>
<path d="M522.02 251.884C521.482 250.12 520.748 248.427 520.128 246.692C519.985 246.289 519.782 245.903 519.779 245.46C520.913 245.724 522.044 246.004 523.181 246.247C524.6 246.552 526.027 246.794 527.471 246.961C529.172 247.158 530.87 247.343 532.586 247.323C533.019 247.319 533.203 247.465 533.051 248.012C531.873 252.264 529.876 256.102 527.287 259.651C526.835 260.271 526.397 260.902 525.842 261.439C525.204 259.731 524.591 258.013 523.917 256.32C523.649 255.649 523.56 254.883 522.996 254.348C523.134 253.786 523.227 253.208 523.428 252.67C523.569 252.292 523.338 252.225 523.124 252.155C522.766 252.038 522.39 251.971 522.02 251.884Z" fill="white"/>
<path d="M515.69 231.837C515.729 232.784 516.247 233.579 516.528 234.448C517.058 236.085 517.784 237.651 518.272 239.304C515.971 238.479 513.825 237.336 511.717 236.118C509.827 235.028 508.062 233.751 506.393 232.358C504.833 231.057 503.407 229.606 502.056 228.08C499.921 225.668 498.233 222.97 496.807 220.098C496.663 219.81 496.523 219.52 496.506 219.147C497.445 219.929 498.342 220.69 499.252 221.434C501.821 223.537 504.552 225.416 507.353 227.196C509.995 228.875 512.744 230.36 515.562 231.719C515.613 231.744 515.647 231.797 515.69 231.837Z" fill="white"/>
<path d="M537.934 225.664C538.95 228.361 539.969 231.058 540.981 233.758C541.014 233.85 541.003 233.96 541.013 234.061C536.569 234.005 532.165 233.581 527.755 232.674C528.586 231.429 529.618 230.452 530.7 229.545C532.216 228.271 533.925 227.277 535.737 226.479C536.452 226.163 537.16 225.82 537.934 225.664Z" fill="white"/>
<path d="M522.996 254.347C523.56 254.883 523.65 255.649 523.917 256.319C524.591 258.014 525.204 259.731 525.842 261.439C525.06 262.605 524.061 263.581 523.034 264.517C521.438 265.973 519.722 267.282 517.891 268.44C516.579 269.269 515.2 269.967 513.816 270.66C513.712 270.712 513.624 270.716 513.478 270.663C513.972 270.049 514.547 269.531 515.05 268.951C516.71 267.037 518.194 265.003 519.453 262.805C520.984 260.131 522.172 257.316 522.996 254.347Z" fill="white"/>
<path d="M546.842 249.477C546.11 248.048 545.658 246.506 545.085 245.014C544.161 242.621 543.277 240.214 542.375 237.813C544.743 237.731 547.077 237.392 549.383 236.86C549.812 236.761 549.845 236.986 549.809 237.288C549.589 239.085 549.375 240.881 548.967 242.647C548.428 244.977 547.768 247.268 546.842 249.477Z" fill="white"/>
<path d="M526.575 266.228C527.116 267.598 527.66 268.968 528.201 270.338C526.76 271.218 525.224 271.91 523.658 272.524C521.427 273.402 519.147 274.14 516.818 274.72C515.114 275.144 513.392 275.484 511.567 275.799C511.949 275.352 512.435 275.286 512.841 275.107C516.598 273.444 520.122 271.39 523.382 268.887C524.483 268.044 525.549 267.161 526.575 266.228" fill="white"/>
<path opacity="0.3" d="M737.365 486.093H951.623V341H737.365V486.093Z" fill="#3F3D56"/>
<path d="M774.214 358.472H835.376V354.294H774.214V358.472Z" fill="#F2F2F2"/>
<path d="M874.505 438.235H896.159V434.057H874.505V438.235Z" fill="#F2F2F2"/>
<path d="M875.265 445.832H937.187V441.653H875.265V445.832Z" fill="#F2F2F2"/>
<path d="M761.678 373.665H849.812V369.487H761.678V373.665Z" fill="#F2F2F2"/>
<path d="M761.678 385.439H849.812V381.261H761.678V385.439Z" fill="#F2F2F2"/>
<path d="M761.678 397.214H849.812V393.036H761.678V397.214Z" fill="#F2F2F2"/>
<path d="M761.678 408.989H849.812V404.81H761.678V408.989Z" fill="#F2F2F2"/>
<path d="M761.678 420.763H849.812V416.585H761.678V420.763Z" fill="#F2F2F2"/>
<path d="M761.678 432.538H849.812V428.36H761.678V432.538Z" fill="#F2F2F2"/>
<path d="M761.678 444.312H849.812V440.134H761.678V444.312Z" fill="#F2F2F2"/>
<path d="M885.423 423.802H897.458C897.484 422.411 897.412 421.02 897.241 419.639C896.873 416.862 895.969 414.188 895.399 411.446C894.897 409.043 894.654 406.593 894.673 404.138C894.677 403.8 894.684 403.458 894.715 403.117C894.745 402.334 894.971 401.571 895.372 400.898C895.657 400.462 896.048 400.089 896.352 399.672C896.458 399.535 896.551 399.389 896.63 399.235V399.231C896.668 399.155 896.702 399.078 896.732 398.999C896.799 398.818 896.838 398.627 896.846 398.433C896.914 397.18 895.779 395.972 894.552 395.455C892.829 394.809 890.945 394.733 889.176 395.239C887.423 395.746 885.729 396.438 884.124 397.305C883.58 397.571 883.041 397.845 882.521 398.148C881.899 398.501 881.328 398.935 880.822 399.44C879.531 400.773 878.965 402.63 878.509 404.427C878.074 405.8 877.925 407.248 878.072 408.681C878.076 408.727 878.087 408.776 878.095 408.822C878.547 411.188 880.477 412.965 881.506 415.146C882.699 417.675 882.619 420.623 882.144 423.38C882.122 423.521 882.095 423.661 882.068 423.802H885.423V423.802Z" fill="#2F2E41"/>
<path d="M884.462 417.113C884.732 419.335 884.895 421.565 884.952 423.802H874.505V415.024C874.558 414.811 874.615 414.602 874.683 414.393C875.337 412.38 876.708 410.694 877.897 408.943C877.954 408.856 878.015 408.768 878.072 408.681C878.578 407.942 879.013 407.158 879.371 406.337C879.542 405.935 879.816 403.986 880.104 403.819C881.343 403.101 882.35 406.17 882.521 406.854C883.128 409.289 883.656 411.746 884.055 414.226C884.211 415.187 884.347 416.15 884.462 417.113Z" fill="#2F2E41"/>
<path opacity="0.1" d="M885.423 423.802H887.501L886.324 419.893L884.625 414.261C884.645 415.214 884.591 416.168 884.462 417.113C884.206 419.066 883.647 420.968 882.806 422.75C882.642 423.095 882.468 423.445 882.327 423.802H885.423Z" fill="black"/>
<path d="M937.947 391.701V386.015C937.947 368.496 923.745 354.294 906.226 354.294C888.707 354.294 874.505 368.496 874.505 386.015V391.701C874.505 409.22 888.707 423.422 906.226 423.422C923.745 423.422 937.947 409.22 937.947 391.701Z" fill="#F2F2F2"/>
<path d="M884.033 393.767C884.972 393.099 886.008 392.58 887.105 392.227C894.06 389.64 901.348 388.053 908.749 387.516C915.185 387.06 922.161 387.602 927.188 391.646C927.97 392.22 928.61 392.965 929.058 393.825C929.691 395.189 929.499 396.775 929.294 398.265C929.248 398.843 929.103 399.409 928.863 399.937C928.187 401.224 926.522 401.676 925.075 401.521C923.628 401.367 922.271 400.755 920.844 400.471C919.961 400.317 919.068 400.226 918.172 400.199L909.223 399.715C903.659 399.413 898.021 399.117 892.562 400.24C890.882 400.542 889.258 401.101 887.748 401.899C886.502 402.598 885.662 403.603 884.505 402.31C882.473 400.039 881.348 395.865 884.033 393.767Z" fill="#2F2E41"/>
<path d="M897.9 397.724C897.9 397.724 909.936 392.329 914.502 398.554C919.068 404.779 912.012 402.289 912.012 402.289L904.126 404.779L895.41 403.119L897.9 397.724Z" fill="#F2F2F2"/>
<path d="M898.522 393.782C898.522 393.782 900.183 401.666 898.938 403.741C897.692 405.816 905.993 408.721 905.993 408.721L913.879 405.401C913.879 405.401 911.804 392.537 913.879 390.047L898.522 393.782Z" fill="#FFB9B9"/>
<path opacity="0.1" d="M898.522 393.782C898.522 393.782 900.183 401.666 898.938 403.741C897.692 405.816 905.993 408.721 905.993 408.721L913.879 405.401C913.879 405.401 911.804 392.537 913.879 390.047L898.522 393.782Z" fill="black"/>
<path d="M917.615 385.897C917.612 389.198 916.299 392.363 913.965 394.697C911.63 397.031 908.465 398.344 905.163 398.346C904.421 398.348 903.681 398.281 902.951 398.147C900.62 397.726 898.459 396.65 896.718 395.044C894.978 393.438 893.732 391.37 893.127 389.081C892.521 386.792 892.581 384.378 893.298 382.122C894.016 379.866 895.363 377.861 897.18 376.343C898.997 374.825 901.21 373.857 903.558 373.552C905.906 373.246 908.293 373.617 910.438 374.62C912.583 375.622 914.397 377.216 915.668 379.213C916.94 381.211 917.615 383.529 917.615 385.897V385.897Z" fill="#FFB9B9"/>
<path d="M925.133 423.802H885.423L886.323 419.893L890.221 402.911L894.727 399.869L894.73 399.865L896.846 398.433L897.899 397.723C897.899 397.723 898.522 398.008 899.24 398.395C899.449 398.513 899.661 398.635 899.874 398.764C899.878 398.76 899.878 398.764 899.878 398.764C900.222 398.964 900.55 399.191 900.858 399.444C900.915 399.497 900.964 399.542 901.014 399.592C901.804 400.382 904.11 404.575 907.924 402.429C908.117 402.323 908.303 402.207 908.482 402.08C909.477 401.392 910.424 400.639 911.32 399.827C912.122 399.094 912.642 398.528 913.068 398.137C913.258 397.947 913.476 397.786 913.713 397.658C913.893 397.564 914.092 397.516 914.295 397.518C915.541 397.518 917.201 400.006 917.201 400.006L917.25 400.15L917.254 400.161L922.493 415.886L925.133 423.802Z" fill="#F2F2F2"/>
<path d="M934.414 408.605C932.903 413.571 931.807 418.654 931.135 423.802H913.979C913.531 422.579 913.084 421.354 912.638 420.129C912.283 419.204 911.977 418.261 911.723 417.303C911.451 416.189 911.322 415.046 911.339 413.9C911.339 413.626 911.351 413.349 911.373 413.075C911.375 413.073 911.376 413.071 911.376 413.068C911.376 413.065 911.375 413.062 911.373 413.06C911.478 411.615 911.812 410.195 912.365 408.856C912.618 408.246 912.91 407.654 913.239 407.082C914.036 405.638 915.001 404.279 915.86 402.866C916.395 402.002 916.861 401.098 917.254 400.161C917.254 400.159 917.254 400.157 917.255 400.155C917.255 400.153 917.256 400.151 917.258 400.15C917.77 398.956 918.038 397.67 918.044 396.371C918.018 394.696 915.184 391.775 918.265 392.056C922.47 392.436 926.083 394.855 929.376 397.613C930.254 398.35 931.112 399.113 931.952 399.865C933.251 401.035 934.623 402.311 935.014 404.017C935.077 404.288 935.114 404.566 935.124 404.845C935.101 406.129 934.861 407.401 934.414 408.605V408.605Z" fill="#2F2E41"/>
<path d="M908.7 404.024C908.268 402.857 907.605 401.789 906.752 400.884C905.891 400.157 904.872 399.64 903.776 399.377C902.357 398.971 900.888 398.761 899.412 398.751C897.654 398.74 895.616 399.212 894.869 400.803C894.276 402.067 894.736 403.563 895.333 404.825C895.588 405.478 896.013 406.052 896.563 406.486C897.321 406.998 898.302 406.982 899.2 407.154C900.594 407.507 901.913 408.105 903.098 408.92L906.176 410.78L911.465 413.976C911.325 413.892 911.375 410.266 911.212 409.672C910.689 407.758 909.511 405.837 908.7 404.024Z" fill="#FFB9B9"/>
<path d="M917.301 379.409C917.08 378.665 916.592 378.028 915.931 377.62C915.965 376.823 915.867 376.025 915.641 375.259C914.887 373.03 913.101 373.158 911.415 372.173C910.684 371.745 910.729 371.367 910.348 370.665C909.85 369.744 909.103 368.982 908.192 368.465C907.111 367.776 905.969 367.067 904.69 366.98C902.002 366.797 899.941 369.325 897.371 370.136C896.239 370.494 895.022 370.508 893.883 370.846C892.745 371.185 891.609 371.992 891.439 373.167C891.361 373.71 891.499 374.266 891.42 374.809C891.262 375.887 890.316 376.642 889.682 377.529C888.282 379.49 888.442 382.26 889.562 384.393C889.798 384.835 890.068 385.257 890.37 385.657C890.463 386.665 890.753 387.646 891.222 388.543C892.342 390.677 894.269 392.271 896.282 393.596C896.118 392.888 896.018 392.167 895.984 391.441C895.955 391.199 895.987 390.954 896.075 390.727C896.3 390.259 896.892 390.134 897.344 389.877C898.279 389.346 898.646 388.17 898.673 387.094C898.7 386.019 898.472 384.941 898.585 383.871C898.589 383.625 898.645 383.383 898.749 383.16C898.853 382.937 899.003 382.738 899.188 382.576C899.533 382.379 899.928 382.285 900.325 382.305C902.241 382.227 904.244 382.192 905.935 381.285C906.48 380.923 907.066 380.627 907.681 380.402C909.118 380.028 910.587 381.034 911.415 382.267C912.243 383.499 912.656 384.966 913.42 386.239C914.184 387.512 915.504 388.647 916.981 388.496C917.064 388.497 917.147 388.479 917.223 388.445C917.299 388.412 917.367 388.362 917.422 388.3C917.486 388.186 917.514 388.055 917.503 387.924L917.586 382.279C917.655 381.313 917.558 380.342 917.301 379.409V379.409Z" fill="#2F2E41"/>
<path d="M937.255 423.802H913.273C913.068 423.319 912.866 422.837 912.654 422.358C911.158 418.976 909.224 415.805 906.902 412.927C906.519 412.547 906.27 412.052 906.192 411.518C906.184 411.296 906.238 411.077 906.348 410.884C906.712 410.204 907.677 409.805 908.46 409.482C909.269 409.157 910.012 408.688 910.655 408.1C911.224 407.588 911.66 406.945 911.924 406.227C911.995 406.017 912.048 405.801 912.084 405.582C912.194 405.726 912.308 405.874 912.418 406.018C912.688 406.375 912.961 406.729 913.239 407.082C915.898 410.496 918.819 413.862 922.493 415.886C923.453 416.421 924.466 416.852 925.517 417.174C925.617 417.218 925.726 417.241 925.836 417.241C925.946 417.241 926.054 417.218 926.155 417.174C926.31 417.047 926.409 416.864 926.432 416.665C926.759 415.297 926.873 413.888 927.112 412.502C927.552 409.98 928.397 407.545 929.616 405.293C930.296 404.028 932.507 399.406 933.908 402.319C934.311 403.158 934.716 404 935.124 404.845C935.379 405.38 935.637 405.912 935.895 406.448C936.849 408.147 937.283 410.088 937.145 412.031C937.183 415.958 937.22 419.882 937.255 423.802Z" fill="#2F2E41"/>
<path opacity="0.1" d="M927.75 411.79C927.458 412.577 927.723 413.447 927.949 414.256C928.602 416.601 928.908 419.029 928.854 421.463C928.864 421.506 928.863 421.55 928.851 421.592C928.839 421.634 928.817 421.672 928.786 421.704C928.756 421.735 928.718 421.758 928.676 421.771C928.635 421.784 928.59 421.786 928.548 421.778C927.59 421.837 926.493 421.843 925.843 421.137L927.75 411.79Z" fill="black"/>
<path opacity="0.3" d="M703.258 342.493H489V487.586H703.258V342.493Z" fill="#3F3D56"/>
<path d="M666.409 355.787H605.247V359.965H666.409V355.787Z" fill="#F2F2F2"/>
<path d="M678.945 370.98H590.811V375.158H678.945V370.98Z" fill="#F2F2F2"/>
<path d="M678.945 382.755H590.811V386.933H678.945V382.755Z" fill="#F2F2F2"/>
<path d="M678.945 394.529H590.811V398.707H678.945V394.529Z" fill="#F2F2F2"/>
<path d="M678.945 406.304H590.811V410.482H678.945V406.304Z" fill="#F2F2F2"/>
<path d="M678.945 418.078H590.811V422.257H678.945V418.078Z" fill="#F2F2F2"/>
<path d="M678.945 429.853H590.811V434.031H678.945V429.853Z" fill="#F2F2F2"/>
<path d="M678.945 441.628H590.811V445.806H678.945V441.628Z" fill="#F2F2F2"/>
<path d="M566.118 393.194V387.508C566.118 369.989 551.916 355.787 534.397 355.787C516.878 355.787 502.676 369.989 502.676 387.508V393.194C502.676 410.713 516.878 424.915 534.397 424.915C551.916 424.915 566.118 410.713 566.118 393.194Z" fill="#F2F2F2"/>
<path d="M525.09 435.55H503.436V439.728H525.09V435.55Z" fill="#F2F2F2"/>
<path d="M565.358 443.147H503.436V447.325H565.358V443.147Z" fill="#F2F2F2"/>
<path d="M564.393 425.295H556.146C555.511 423.59 554.948 421.863 554.455 420.114C554.13 418.059 553.193 416.148 551.766 414.633C551.33 414.148 550.942 413.621 550.607 413.061C549.9 411.682 549.645 410.115 549.878 408.583C549.925 408.156 549.996 407.733 550.09 407.314C550.451 405.692 551.055 404.135 551.56 402.555C551.667 402.234 551.862 401.95 552.123 401.734C552.383 401.519 552.699 401.381 553.034 401.336C553.578 401.245 554.137 401.309 554.645 401.522C554.758 401.568 554.866 401.624 554.968 401.689C555.868 402.232 556.336 403.341 556.712 404.355C558.433 408.974 560.152 413.593 561.871 418.211C562.205 419.108 562.539 420.007 562.874 420.908C563.367 422.23 563.857 423.552 564.275 424.9C564.317 425.033 564.355 425.162 564.393 425.295Z" fill="#D0CDE1"/>
<path d="M530.059 364.504C528.009 365.197 526.151 366.816 525.731 368.939C525.537 369.923 525.656 370.946 525.492 371.936C525.112 374.231 523.31 375.984 521.648 377.612C519.986 379.24 518.27 381.132 518.149 383.455C518.016 385.999 519.861 388.383 519.542 390.91C519.171 393.846 516.069 395.749 515.302 398.608C514.79 400.517 515.417 402.573 516.45 404.258C518.417 407.47 521.779 409.65 525.36 410.819C528.941 411.988 532.754 412.234 536.52 412.273C541.107 412.321 546.086 411.928 549.532 408.901C551.5 407.157 552.736 404.734 552.992 402.117C553.319 398.611 551.856 394.989 552.865 391.616C553.501 389.493 555.094 387.555 554.856 385.352C554.624 383.198 552.742 381.671 551.451 379.931C550.246 378.306 549.515 376.388 548.798 374.496L546.346 368.024C545.864 366.752 545.334 365.413 544.26 364.578C542.248 363.015 539.014 363.322 536.663 363.645C534.481 363.944 532.158 363.796 530.059 364.504Z" fill="#2F2E41"/>
<path d="M531.956 385.834C531.956 385.834 532.196 393.034 531.476 393.754C530.756 394.474 534.356 399.274 534.356 399.274L540.837 399.034L544.198 396.394L541.317 392.554C541.317 392.554 540.117 386.314 541.077 384.874C542.037 383.434 531.956 385.834 531.956 385.834Z" fill="#A0616A"/>
<path opacity="0.1" d="M531.956 385.834C531.956 385.834 532.196 393.034 531.476 393.754C530.756 394.474 534.356 399.274 534.356 399.274L540.837 399.034L544.198 396.394L541.317 392.554C541.317 392.554 540.117 386.314 541.077 384.874C542.037 383.434 531.956 385.834 531.956 385.834Z" fill="black"/>
<path d="M535.917 388.594C540.689 388.594 544.558 384.726 544.558 379.954C544.558 375.182 540.689 371.314 535.917 371.314C531.144 371.314 527.276 375.182 527.276 379.954C527.276 384.726 531.144 388.594 535.917 388.594Z" fill="#A0616A"/>
<path d="M540.346 425.295H547.351C547.613 424.82 547.86 424.327 548.145 423.878V423.875C548.457 423.332 548.894 422.874 549.421 422.538C549.757 422.384 550.074 422.194 550.367 421.972C550.648 421.667 550.847 421.296 550.945 420.893C551.427 419.386 551.693 417.818 551.735 416.236C551.746 415.704 551.735 415.165 551.765 414.633C551.78 414.218 551.834 413.805 551.925 413.399C552.165 412.574 552.514 411.785 552.962 411.052C553.912 409.323 554.864 407.595 555.819 405.867C555.991 405.38 556.057 404.862 556.013 404.348C555.992 403.654 555.779 402.979 555.397 402.399C555.264 402.16 555.12 401.921 554.968 401.689C554.382 400.754 553.699 399.883 552.932 399.091C551.303 397.383 549.326 396.045 547.135 395.167C546.86 395.075 546.598 394.947 546.356 394.788C546.07 394.546 545.828 394.257 545.642 393.933C544.882 392.79 543.955 391.502 542.583 391.574C542.36 391.462 542.117 391.396 541.868 391.379C541.619 391.362 541.369 391.395 541.132 391.475C541.06 391.494 540.989 391.517 540.92 391.544C540.395 391.776 539.887 392.041 539.396 392.338C538.135 392.993 536.705 393.252 535.293 393.082C535.128 393.071 534.966 393.029 534.815 392.961C534.655 392.859 534.507 392.739 534.374 392.604C534.027 392.32 533.612 392.133 533.169 392.062C532.727 391.991 532.273 392.039 531.855 392.201C531.463 392.341 531.116 392.585 530.852 392.907C530.602 393.223 530.427 393.603 530.15 393.899C529.432 394.666 528.246 394.696 527.198 394.693C525.02 394.632 522.843 394.832 520.713 395.289C518.843 395.704 517.094 396.549 515.607 397.758L515.604 397.762C515.399 397.936 515.209 398.115 515.019 398.305C514.587 398.712 514.243 399.203 514.008 399.748C513.719 400.493 513.757 401.332 513.495 402.088C513.207 402.935 512.565 403.626 512.306 404.477C512.109 405.123 512.135 405.837 511.809 406.422C511.824 406.433 511.835 406.444 511.85 406.456C513.233 407.671 514.415 409.266 515.801 410.471C516.606 411.084 517.287 411.844 517.807 412.712C517.907 412.906 517.99 413.11 518.054 413.319C518.21 414.045 518.279 414.787 518.259 415.53C518.434 419.081 520.36 422.302 522.514 425.128C522.556 425.185 522.597 425.242 522.643 425.295L540.346 425.295Z" fill="#D0CDE1"/>
<path d="M517.807 412.711C517.48 414.979 517.151 417.245 516.819 419.51C516.668 420.723 516.443 421.926 516.143 423.111C515.946 423.844 515.691 424.562 515.512 425.295H505.62C505.625 424.885 505.657 424.475 505.715 424.068C505.97 422.608 506.384 421.18 506.95 419.81C508.101 416.703 509.251 413.594 510.399 410.482C510.889 409.156 511.311 407.77 511.85 406.456C511.945 406.213 512.048 405.97 512.158 405.734C512.732 404.473 514.323 404.99 515.501 405.18C515.824 405.22 516.14 405.309 516.436 405.445C516.794 405.643 517.096 405.928 517.313 406.273C518.43 407.926 518.187 410.11 517.898 412.085C517.868 412.294 517.837 412.503 517.807 412.711Z" fill="#D0CDE1"/>
<path d="M548.145 423.878C548.16 423.932 548.324 424.497 548.593 425.295H540.346C544.434 424.592 548.145 423.875 548.145 423.875V423.878Z" fill="#2F2E41"/>
<path d="M536.637 379.954C541.807 379.954 545.999 377.697 545.999 374.914C545.999 372.131 541.807 369.874 536.637 369.874C531.467 369.874 527.276 372.131 527.276 374.914C527.276 377.697 531.467 379.954 536.637 379.954Z" fill="#2F2E41"/>
<path d="M840.515 395.907H626.258V541H840.515V395.907Z" fill="#3F3D56"/>
<path opacity="0.1" d="M809.364 531.125C823.212 531.125 834.437 529.934 834.437 528.466C834.437 526.997 823.212 525.807 809.364 525.807C795.517 525.807 784.292 526.997 784.292 528.466C784.292 529.934 795.517 531.125 809.364 531.125Z" fill="black"/>
<path d="M703.375 446.608V440.922C703.375 423.403 689.173 409.201 671.654 409.201C654.135 409.201 639.934 423.403 639.934 440.922V446.608C639.934 464.127 654.135 478.329 671.654 478.329C689.173 478.329 703.375 464.127 703.375 446.608Z" fill="#F2F2F2"/>
<path d="M660.363 440.94C660.569 441.002 660.79 440.992 660.989 440.91C661.188 440.827 661.353 440.679 661.454 440.489C662.332 439.107 660.716 437.324 661.066 435.725C661.346 434.444 662.803 433.683 663.1 432.406C663.39 431.164 662.498 429.765 663.101 428.642C663.573 427.762 664.752 427.531 665.739 427.685C666.725 427.839 667.662 428.273 668.659 428.334C669.987 428.415 671.253 427.83 672.552 427.54C673.851 427.251 675.435 427.364 676.199 428.453C677.18 429.852 676.185 431.8 676.526 433.474C676.798 434.803 677.91 435.903 677.934 437.26C677.943 437.742 676.675 437.353 676.743 437.831C676.81 438.308 676.211 437.888 676.69 437.831C676.885 437.783 677.061 437.674 677.19 437.52C677.32 437.366 677.397 437.175 677.411 436.974C677.468 436.576 678.215 436.444 678.206 436.042C678.186 435.101 679.888 435.736 680.168 434.837C680.813 432.742 680.681 430.484 679.796 428.479C679.34 427.659 678.976 426.792 678.71 425.893C678.46 424.645 678.854 423.305 678.441 422.101C677.885 420.478 676.046 419.651 674.339 419.483C672.632 419.315 670.897 419.616 669.199 419.368C667.679 419.146 666.206 418.487 664.672 418.583C662.832 418.697 661.23 419.883 659.955 421.214C658.679 422.545 657.596 424.077 656.148 425.217C655.704 425.522 655.295 425.874 654.927 426.268C654.189 427.167 654.114 428.448 654.319 429.593C654.525 430.738 654.971 431.83 655.16 432.978C655.337 434.056 655.282 435.158 655.359 436.249C655.377 437.349 655.71 438.42 656.318 439.337C656.581 439.693 656.922 439.986 657.315 440.191C657.708 440.396 658.143 440.509 658.586 440.521C658.894 440.528 659.153 440.252 659.463 440.324C659.85 440.414 660.019 440.782 660.363 440.94Z" fill="#2F2E41"/>
<path d="M646.411 478.709C646.688 474.907 646.897 472.066 646.897 472.066L648.69 467.341L654.445 478.709L646.411 478.709Z" fill="#575A89"/>
<path opacity="0.1" d="M646.411 478.709C646.688 474.907 646.897 472.066 646.897 472.066L648.69 467.341L654.445 478.709L646.411 478.709Z" fill="black"/>
<path d="M659.748 441.327C659.748 441.327 665.115 454.985 662.025 457.586C658.935 460.188 679.263 453.196 679.263 453.196L678.775 451.407C678.775 451.407 672.107 448.806 675.36 441.327C678.612 433.847 659.748 441.327 659.748 441.327Z" fill="#A0616A"/>
<path opacity="0.1" d="M659.748 441.327C659.748 441.327 665.115 454.985 662.025 457.586C658.935 460.188 679.263 453.196 679.263 453.196L678.775 451.407C678.775 451.407 672.107 448.806 675.36 441.327C678.612 433.847 659.748 441.327 659.748 441.327Z" fill="black"/>
<path d="M667.392 446.855C673.679 446.855 678.776 441.759 678.776 435.473C678.776 429.187 673.679 424.092 667.392 424.092C661.105 424.092 656.008 429.187 656.008 435.473C656.008 441.759 661.105 446.855 667.392 446.855Z" fill="#A0616A"/>
<path d="M695.037 460.025C695.037 460.025 694.991 460.929 694.911 462.509C694.748 465.726 694.456 471.754 694.163 478.709H650.035C648.882 477.165 647.938 475.475 647.228 473.684C647.036 473.164 646.924 472.619 646.897 472.066C646.654 467.755 650.517 461.738 653.245 461.165C656.334 460.511 662.188 454.335 662.188 454.335C662.206 454.571 662.285 454.797 662.415 454.994C662.545 455.19 662.723 455.351 662.932 455.46V455.464C663.404 455.707 663.932 455.823 664.463 455.798C666.37 455.798 674.758 451.927 677.452 450.663C677.98 450.416 678.287 450.268 678.287 450.268C681.394 451.608 684.603 452.696 687.883 453.523C689.52 453.931 691.031 454.739 692.279 455.873C693.527 457.008 694.475 458.435 695.037 460.025V460.025Z" fill="#575A89"/>
<path d="M658.411 439.802C658.617 439.864 658.838 439.854 659.037 439.771C659.236 439.689 659.401 439.54 659.502 439.351C660.38 437.968 658.764 436.186 659.114 434.587C659.394 433.305 660.851 432.545 661.148 431.267C661.438 430.026 660.546 428.627 661.149 427.504C661.621 426.624 662.8 426.393 663.787 426.547C664.773 426.701 665.71 427.135 666.707 427.195C668.035 427.276 669.301 426.692 670.6 426.402C671.899 426.112 673.483 426.226 674.247 427.315C675.228 428.714 674.233 430.661 674.574 432.335C674.846 433.665 677.936 434.597 678.216 433.699C678.861 431.603 678.729 429.346 677.844 427.341C677.388 426.521 677.024 425.654 676.758 424.755C676.508 423.507 676.902 422.167 676.489 420.963C675.933 419.34 674.095 418.513 672.387 418.345C670.68 418.177 668.945 418.478 667.247 418.23C665.727 418.008 664.254 417.349 662.721 417.444C660.88 417.559 659.278 418.745 658.003 420.076C656.727 421.407 655.645 422.938 654.196 424.079C653.752 424.384 653.343 424.736 652.975 425.13C652.237 426.029 652.162 427.31 652.367 428.455C652.573 429.6 653.019 430.692 653.208 431.839C653.385 432.918 653.331 434.02 653.407 435.111C653.425 436.21 653.758 437.282 654.366 438.198C654.629 438.555 654.97 438.848 655.364 439.053C655.757 439.258 656.191 439.371 656.635 439.383C656.942 439.39 657.201 439.114 657.511 439.186C657.898 439.276 658.067 439.644 658.411 439.802Z" fill="#2F2E41"/>
<path opacity="0.1" d="M700.678 478.709H687.8C686.819 471.522 686.01 464.01 686.01 464.01L688.613 462.87L693.901 460.025C693.901 460.025 694.288 460.944 694.911 462.509C696.241 465.856 698.653 472.153 700.678 478.709Z" fill="black"/>
<path d="M701.814 478.709H687.279C685.125 470.846 683.002 462.3 683.002 462.3L688.533 458.236L695.037 460.025C695.037 460.025 698.843 469.084 701.814 478.709Z" fill="#575A89"/>
<path d="M803.666 409.201H742.504V413.379H803.666V409.201Z" fill="#FC5185"/>
<path d="M662.347 488.964H640.693V493.142H662.347V488.964Z" fill="#FC5185"/>
<path d="M702.615 496.561H640.693V500.739H702.615V496.561Z" fill="#FC5185"/>
<path d="M816.203 424.394H728.068V428.572H816.203V424.394Z" fill="#F2F2F2"/>
<path d="M816.203 436.168H728.068V440.346H816.203V436.168Z" fill="#F2F2F2"/>
<path d="M816.203 447.943H728.068V452.121H816.203V447.943Z" fill="#F2F2F2"/>
<path d="M816.203 459.718H728.068V463.896H816.203V459.718Z" fill="#F2F2F2"/>
<path d="M816.203 471.492H728.068V475.67H816.203V471.492Z" fill="#F2F2F2"/>
<path d="M816.203 483.267H728.068V487.445H816.203V483.267Z" fill="#F2F2F2"/>
<path d="M816.203 495.041H728.068V499.219H816.203V495.041Z" fill="#F2F2F2"/>
<path d="M709.309 504.347L685.217 528.435L675.091 518.311C674.769 517.989 674.388 517.734 673.968 517.56C673.548 517.386 673.097 517.297 672.643 517.297C672.188 517.297 671.738 517.386 671.318 517.56C670.898 517.734 670.517 517.989 670.195 518.311V518.311C669.874 518.632 669.619 519.013 669.445 519.433C669.271 519.853 669.181 520.303 669.181 520.758C669.181 521.212 669.271 521.662 669.445 522.082C669.619 522.502 669.874 522.884 670.195 523.205L683.334 536.341C683.829 536.836 684.501 537.115 685.201 537.115C685.901 537.115 686.573 536.837 687.068 536.342L714.202 509.241C714.524 508.92 714.779 508.539 714.953 508.119C715.127 507.699 715.217 507.249 715.217 506.794C715.217 506.34 715.128 505.89 714.954 505.47C714.78 505.05 714.525 504.668 714.203 504.347V504.347C713.554 503.698 712.674 503.333 711.756 503.333C710.838 503.333 709.958 503.698 709.309 504.347V504.347Z" fill="#57B894"/>
<path d="M741.262 514.446C740.137 514.123 739.316 513.726 738.801 513.257C738.291 512.783 738.036 512.2 738.036 511.507C738.036 510.723 738.348 510.076 738.972 509.566C739.601 509.051 740.417 508.793 741.419 508.793C742.103 508.793 742.711 508.925 743.245 509.19C743.782 509.454 744.197 509.819 744.489 510.283C744.785 510.748 744.933 511.256 744.933 511.808H743.614C743.614 511.206 743.422 510.735 743.04 510.393C742.657 510.046 742.117 509.873 741.419 509.873C740.772 509.873 740.266 510.017 739.902 510.304C739.542 510.586 739.362 510.981 739.362 511.487C739.362 511.892 739.533 512.236 739.875 512.519C740.221 512.797 740.806 513.052 741.631 513.284C742.461 513.517 743.108 513.774 743.573 514.057C744.042 514.335 744.389 514.661 744.612 515.034C744.84 515.408 744.954 515.848 744.954 516.354C744.954 517.16 744.639 517.807 744.01 518.295C743.381 518.778 742.541 519.02 741.488 519.02C740.804 519.02 740.166 518.89 739.574 518.63C738.981 518.366 738.523 518.006 738.2 517.55C737.881 517.094 737.721 516.577 737.721 515.998H739.041C739.041 516.6 739.262 517.076 739.704 517.427C740.15 517.773 740.745 517.946 741.488 517.946C742.181 517.946 742.711 517.805 743.081 517.523C743.45 517.24 743.634 516.855 743.634 516.367C743.634 515.88 743.463 515.504 743.122 515.239C742.78 514.971 742.16 514.706 741.262 514.446ZM747.818 518.883H746.553V511.487H747.818V518.883ZM746.451 509.525C746.451 509.32 746.512 509.146 746.635 509.005C746.763 508.864 746.95 508.793 747.196 508.793C747.442 508.793 747.629 508.864 747.756 509.005C747.884 509.146 747.948 509.32 747.948 509.525C747.948 509.73 747.884 509.901 747.756 510.037C747.629 510.174 747.442 510.242 747.196 510.242C746.95 510.242 746.763 510.174 746.635 510.037C746.512 509.901 746.451 509.73 746.451 509.525ZM751.038 511.487L751.072 512.307C751.614 511.669 752.346 511.35 753.266 511.35C754.301 511.35 755.005 511.746 755.378 512.539C755.625 512.184 755.944 511.897 756.335 511.678C756.732 511.459 757.199 511.35 757.737 511.35C759.359 511.35 760.184 512.209 760.211 513.927V518.883H758.947V514.002C758.947 513.473 758.826 513.079 758.584 512.82C758.343 512.555 757.937 512.423 757.368 512.423C756.898 512.423 756.509 512.564 756.199 512.847C755.889 513.125 755.709 513.501 755.659 513.975V518.883H754.387V514.036C754.387 512.961 753.861 512.423 752.808 512.423C751.979 512.423 751.411 512.776 751.106 513.483V518.883H749.841V511.487H751.038ZM768.374 515.267C768.374 516.392 768.116 517.299 767.601 517.987C767.086 518.676 766.389 519.02 765.509 519.02C764.611 519.02 763.905 518.735 763.39 518.165V521.727H762.125V511.487H763.281L763.342 512.307C763.857 511.669 764.573 511.35 765.489 511.35C766.377 511.35 767.079 511.685 767.594 512.355C768.114 513.025 768.374 513.957 768.374 515.151V515.267ZM767.109 515.123C767.109 514.289 766.931 513.631 766.576 513.148C766.22 512.665 765.733 512.423 765.113 512.423C764.347 512.423 763.773 512.763 763.39 513.442V516.976C763.768 517.65 764.347 517.987 765.126 517.987C765.733 517.987 766.213 517.748 766.569 517.27C766.929 516.787 767.109 516.071 767.109 515.123ZM771.361 518.883H770.096V508.383H771.361V518.883ZM773.056 515.116C773.056 514.392 773.197 513.74 773.48 513.161C773.767 512.583 774.164 512.136 774.669 511.821C775.18 511.507 775.761 511.35 776.413 511.35C777.42 511.35 778.233 511.698 778.853 512.396C779.477 513.093 779.79 514.02 779.79 515.178V515.267C779.79 515.987 779.651 516.634 779.373 517.208C779.099 517.778 778.705 518.222 778.19 518.541C777.68 518.86 777.092 519.02 776.426 519.02C775.424 519.02 774.61 518.671 773.986 517.974C773.366 517.277 773.056 516.354 773.056 515.205V515.116ZM774.328 515.267C774.328 516.087 774.517 516.746 774.895 517.242C775.278 517.739 775.788 517.987 776.426 517.987C777.069 517.987 777.579 517.737 777.958 517.236C778.336 516.73 778.525 516.023 778.525 515.116C778.525 514.305 778.331 513.649 777.944 513.148C777.561 512.642 777.051 512.389 776.413 512.389C775.788 512.389 775.285 512.637 774.902 513.134C774.519 513.631 774.328 514.342 774.328 515.267ZM782.572 511.487L782.613 512.416C783.178 511.705 783.916 511.35 784.828 511.35C786.391 511.35 787.179 512.232 787.193 513.995V518.883H785.928V513.988C785.924 513.455 785.801 513.061 785.559 512.806C785.322 512.551 784.951 512.423 784.445 512.423C784.035 512.423 783.675 512.532 783.365 512.751C783.055 512.97 782.813 513.257 782.64 513.612V518.883H781.375V511.487H782.572ZM790.474 518.883H789.209V511.487H790.474V518.883ZM789.107 509.525C789.107 509.32 789.168 509.146 789.292 509.005C789.419 508.864 789.606 508.793 789.852 508.793C790.098 508.793 790.285 508.864 790.413 509.005C790.54 509.146 790.604 509.32 790.604 509.525C790.604 509.73 790.54 509.901 790.413 510.037C790.285 510.174 790.098 510.242 789.852 510.242C789.606 510.242 789.419 510.174 789.292 510.037C789.168 509.901 789.107 509.73 789.107 509.525ZM795.574 519.02C794.571 519.02 793.755 518.692 793.126 518.035C792.498 517.375 792.183 516.493 792.183 515.39V515.157C792.183 514.424 792.322 513.77 792.6 513.195C792.883 512.617 793.275 512.166 793.776 511.842C794.282 511.514 794.829 511.35 795.417 511.35C796.378 511.35 797.125 511.667 797.659 512.3C798.192 512.933 798.458 513.84 798.458 515.021V515.547H793.448C793.466 516.276 793.678 516.866 794.083 517.318C794.494 517.764 795.013 517.987 795.642 517.987C796.089 517.987 796.467 517.896 796.777 517.714C797.087 517.532 797.358 517.29 797.59 516.989L798.363 517.591C797.743 518.543 796.813 519.02 795.574 519.02ZM795.417 512.389C794.906 512.389 794.478 512.576 794.131 512.949C793.785 513.319 793.571 513.838 793.489 514.508H797.194V514.412C797.157 513.77 796.984 513.273 796.674 512.922C796.364 512.567 795.945 512.389 795.417 512.389ZM801.125 511.487L801.166 512.416C801.731 511.705 802.469 511.35 803.38 511.35C804.944 511.35 805.732 512.232 805.746 513.995V518.883H804.481V513.988C804.476 513.455 804.353 513.061 804.112 512.806C803.875 512.551 803.503 512.423 802.998 512.423C802.587 512.423 802.227 512.532 801.917 512.751C801.608 512.97 801.366 513.257 801.193 513.612V518.883H799.928V511.487H801.125Z" fill="white"/>
<path d="M829.775 725.305C958.045 725.305 1062.03 715.951 1062.03 704.412C1062.03 692.873 958.045 683.519 829.775 683.519C701.505 683.519 597.521 692.873 597.521 704.412C597.521 715.951 701.505 725.305 829.775 725.305Z" fill="#3F3D56"/>
<path opacity="0.1" d="M1037.55 683.115C1037.55 715.072 992.998 705.187 938.449 705.187C883.9 705.187 840.01 715.072 840.01 683.115C840.01 651.158 884.556 644.208 939.105 644.208C993.654 644.208 1037.55 651.158 1037.55 683.115Z" fill="black"/>
<path d="M1037.55 677.146C1037.55 709.102 992.998 699.218 938.449 699.218C883.9 699.218 840.01 709.102 840.01 677.146C840.01 645.189 884.556 638.238 939.105 638.238C993.654 638.238 1037.55 645.189 1037.55 677.146Z" fill="#3F3D56"/>
<path d="M825.078 694.227C825.078 694.227 831.387 710.163 826.074 712.155C820.762 714.147 809.472 712.819 809.472 712.819C809.472 712.819 796.189 711.159 792.869 711.491C789.548 711.823 775.934 709.167 777.926 703.855C779.919 698.543 790.212 699.871 790.212 699.871L799.51 695.555C799.51 695.555 800.506 692.235 802.831 693.563C805.155 694.891 811.796 699.871 825.078 694.227Z" fill="#CBCEDA"/>
<path d="M790.545 647.083C790.545 647.083 797.518 662.687 786.228 661.359C774.938 660.031 766.305 657.707 762.984 657.375C759.79 657.056 750.759 653.972 752.144 647.827C752.219 647.43 752.249 647.025 752.234 646.621C752.234 645.797 753.355 644.178 762.32 644.427C762.32 644.427 768.961 644.427 771.618 639.779C771.618 639.779 781.58 652.395 790.545 647.083Z" fill="#CBCEDA"/>
<path d="M895.806 575.039C895.806 575.039 869.574 584.335 855.296 580.351L861.937 593.631C861.937 593.631 895.806 592.635 901.783 586.659C907.76 580.683 895.806 575.039 895.806 575.039Z" fill="#FC5185"/>
<path d="M932.997 585.331L942.959 597.283C942.959 597.283 959.561 636.127 923.367 640.111C887.173 644.095 860.277 637.123 860.277 637.123C860.277 637.123 845.666 630.151 845.334 635.463C845.002 640.775 843.674 655.715 835.705 670.323L828.732 686.259C828.732 686.259 825.079 689.911 826.075 694.891C827.071 699.871 803.827 701.531 804.16 694.891C804.16 694.891 807.48 689.247 807.48 685.927C807.48 682.607 812.793 674.639 812.793 674.639L822.423 626.831C822.423 626.831 821.758 602.263 844.338 606.911C866.918 611.559 899.127 605.915 899.127 605.915L906.433 580.351L932.997 585.331Z" fill="#2F2E41"/>
<path opacity="0.1" d="M932.997 585.331L942.959 597.283C942.959 597.283 959.561 636.127 923.367 640.111C887.173 644.095 860.277 637.123 860.277 637.123C860.277 637.123 845.666 630.151 845.334 635.463C845.002 640.775 843.674 655.715 835.705 670.323L828.732 686.259C828.732 686.259 825.079 689.911 826.075 694.891C827.071 699.871 803.827 701.531 804.16 694.891C804.16 694.891 807.48 689.247 807.48 685.927C807.48 682.607 812.793 674.639 812.793 674.639L822.423 626.831C822.423 626.831 821.758 602.263 844.338 606.911C866.918 611.559 899.127 605.915 899.127 605.915L906.433 580.351L932.997 585.331Z" fill="black"/>
<path d="M895.641 584.457C895.641 584.457 926.024 573.047 942.959 597.283C942.959 597.283 947.275 634.799 930.008 636.459C912.742 638.119 890.162 637.787 884.849 632.143C879.536 626.499 845.998 610.563 845.998 610.563C845.998 610.563 829.304 602.049 826.029 613.112C822.755 624.175 822.422 626.831 822.422 626.831C822.422 626.831 805.156 639.447 798.182 641.771C798.182 641.771 793.534 648.411 790.877 648.411C788.221 648.411 771.95 652.063 773.61 639.779L800.507 615.211L827.403 588.983C827.403 588.983 835.041 577.695 854.632 583.671C867.634 587.54 880.822 590.754 894.146 593.299L895.641 584.457Z" fill="#2F2E41"/>
<path d="M878.042 503.826C887.761 503.826 895.641 495.948 895.641 486.23C895.641 476.512 887.761 468.634 878.042 468.634C868.322 468.634 860.443 476.512 860.443 486.23C860.443 495.948 868.322 503.826 878.042 503.826Z" fill="#FFC1C7"/>
<path d="M893.048 502.749C893.654 503.905 894.422 504.969 895.328 505.909C897.739 508.531 900.615 510.683 903.811 512.256C893.822 514.285 883.733 515.785 873.586 516.75C874.657 512.977 873.247 508.943 871.352 505.51C869.456 502.077 867.04 498.877 865.854 495.139L877.75 495.459C879.908 495.517 882.073 495.581 884.231 495.476C885.844 495.397 888.531 494.431 890.036 494.787C893.219 495.539 891.659 499.927 893.048 502.749Z" fill="#FFC1C7"/>
<path d="M851.311 577.031L849.292 579.375C849.292 579.375 824.746 581.679 825.743 585.663C826.739 589.647 855.296 580.351 855.296 580.351L851.311 577.031Z" fill="#FFC1C7"/>
<path opacity="0.1" d="M895.806 575.039C895.806 575.039 869.574 584.335 855.296 580.351L861.937 593.631C861.937 593.631 895.806 592.635 901.783 586.659C907.76 580.683 895.806 575.039 895.806 575.039Z" fill="black"/>
<path d="M865.921 514.284C865.921 514.284 889.829 499.344 909.752 514.284C929.676 529.223 942.958 597.283 942.958 597.283L896.802 586.991C896.802 586.991 894.81 579.023 892.154 577.695C889.497 576.367 889.165 570.723 889.165 570.723C889.165 570.723 874.887 566.407 875.883 549.807C876.879 533.207 865.921 514.284 865.921 514.284Z" fill="#FC5185"/>
<path d="M878.208 514.948H865.922C865.922 514.948 858.616 523.248 857.62 544.164L853.635 560.763C853.635 560.763 845.334 580.683 850.315 584.003C855.296 587.323 864.925 586.991 866.918 580.351C868.91 573.711 882.524 535.2 882.524 535.2L878.208 514.948Z" fill="#FC5185"/>
<path d="M874.686 463.33C877.732 462.081 881.065 461.702 884.314 462.234C887.563 462.767 890.601 464.19 893.088 466.347C899.465 472.037 900.752 481.319 902.364 489.712C903.976 498.104 907.219 507.45 915.13 510.685C911.565 511.162 907.945 511.056 904.413 510.374L916.368 521.085L896.229 514.522C889.908 512.462 883.27 510.377 876.725 511.54C865.882 513.467 858.333 523.659 847.919 527.239L849.076 521.593L842.089 521.539C843.763 520.301 845.132 518.697 846.092 516.85C845.763 516.45 845.357 516.12 844.898 515.88C844.439 515.64 843.936 515.494 843.42 515.451C840.507 497.287 851.295 479.332 865.354 467.464C868.12 465.13 871.179 462.888 874.751 462.304C878.323 461.72 882.492 463.317 883.734 466.716" fill="#FFEA9E"/>
<path d="M570 629.8C570 668.015 593.978 698.937 623.61 698.937L570 629.8Z" fill="#3F3D56"/>
<path d="M623.609 698.937C623.609 660.294 650.367 629.024 683.435 629.024L623.609 698.937Z" fill="#FC5185"/>
<path d="M589.424 633.264C589.424 669.564 604.714 698.937 623.61 698.937L589.424 633.264Z" fill="#FC5185"/>
<path d="M623.609 698.937C623.609 649.559 654.537 609.603 692.758 609.603L623.609 698.937Z" fill="#3F3D56"/>
<path d="M612.332 699.425C612.332 699.425 619.935 699.191 622.226 697.559C624.517 695.928 633.921 693.98 634.489 696.596C635.058 699.213 645.915 709.609 637.331 709.678C628.748 709.747 617.387 708.341 615.1 706.948C612.813 705.555 612.332 699.425 612.332 699.425Z" fill="#A8A8A8"/>
<path opacity="0.2" d="M637.484 708.767C628.901 708.836 617.54 707.43 615.253 706.037C613.512 704.977 612.818 701.171 612.586 699.415C612.425 699.422 612.332 699.425 612.332 699.425C612.332 699.425 612.813 705.555 615.1 706.948C617.387 708.341 628.748 709.747 637.331 709.678C639.809 709.658 640.665 708.776 640.618 707.471C640.274 708.26 639.329 708.752 637.484 708.767Z" fill="black"/>
<defs>
<linearGradient id="paint0_linear" x1="720" y1="-1" x2="720" y2="647" gradientUnits="userSpaceOnUse">
<stop stop-color="#243D9B"/>
<stop offset="1" stop-color="#D669A7"/>
</linearGradient>
</defs>
</svg>
