<svg width="16" height="17" viewBox="0 0 16 17" fill="none" xmlns="http://www.w3.org/2000/svg">
<path d="M4.52691 13.694L4.79838 13.8557C5.79552 14.4483 6.92977 14.7617 8.07804 14.7617C11.6204 14.7617 14.5025 11.8868 14.5025 8.3529C14.5025 4.81904 11.6204 1.94427 8.07804 1.94427C4.5358 1.94427 1.65359 4.81904 1.65359 8.3529C1.65359 9.51965 1.97857 10.6687 2.59313 11.6756L2.75981 11.9485L2.11789 14.3379L4.52691 13.694ZM0 16.4504L1.14998 12.1705C0.499001 10.9986 0.156248 9.68575 0.156248 8.3529C0.156248 3.99556 3.71011 0.45044 8.07804 0.45044C12.4461 0.45044 16 3.99556 16 8.3529C16 12.7102 12.4461 16.2554 8.07804 16.2554C6.76686 16.2554 5.47157 15.925 4.31254 15.2978L0 16.4504Z" fill="white"/>
<path d="M7.85118 11.7221C8.01836 11.59 8.16316 11.4339 8.30573 11.2777C8.46728 11.1009 8.61959 10.9152 8.75772 10.7186C8.97739 10.4058 9.16749 10.0775 9.32271 9.72762C9.45417 9.43158 9.55417 9.12668 9.62905 8.81324C9.66512 8.66199 9.68751 8.50732 9.71487 8.35418C9.72529 8.29603 9.71281 8.26772 9.63914 8.26653C9.35775 8.26176 9.07859 8.23089 8.79875 8.19764C8.1582 8.12141 7.53646 7.97169 6.92839 7.76091C6.81369 7.72118 6.70086 7.67616 6.58718 7.6337C6.51316 7.38268 6.40238 7.14479 6.32186 6.89633C6.27913 6.76435 6.20032 6.64361 6.19434 6.49986C6.62171 6.70176 7.0578 6.88372 7.50877 7.0244C7.93306 7.1569 8.36334 7.26911 8.80576 7.33101C9.03774 7.36324 9.26988 7.3878 9.50323 7.4086C9.71555 7.42753 9.92736 7.41559 10.1388 7.42531C10.18 7.42719 10.2183 7.41969 10.2564 7.40724C10.3937 7.77183 10.5284 8.13744 10.6688 8.50084C10.7563 8.7273 10.825 8.96143 10.9365 9.17852C10.7481 9.66094 10.4988 10.1116 10.1995 10.5327C10.0339 10.7658 9.84615 10.983 9.64649 11.1906C9.3292 11.5202 8.97893 11.8076 8.59788 12.0587C8.4377 12.1643 8.27564 12.2687 8.09871 12.3463C8.01631 12.1382 7.93357 11.9302 7.85118 11.7221Z" fill="white"/>
<path d="M7.15777 9.54395C6.90767 9.48869 6.66953 9.39729 6.4302 9.30828C6.10438 9.1872 5.79376 9.03304 5.48674 8.87172C5.12672 8.68244 4.79234 8.45461 4.47437 8.2012C4.26359 8.03323 4.07076 7.84616 3.88802 7.65023C3.64271 7.38744 3.43552 7.09516 3.25858 6.78173C3.11105 6.52014 2.99583 6.24541 2.9054 5.95978C2.89771 5.93556 2.89207 5.9105 2.90027 5.87946C2.97395 5.97274 3.04541 6.06772 3.12199 6.15862C3.32235 6.3965 3.528 6.62842 3.7622 6.83612C3.96221 7.0133 4.16154 7.19048 4.37625 7.34959C4.65729 7.55797 4.9503 7.7476 5.25698 7.91796C5.69427 8.16096 6.15498 8.34649 6.62834 8.50406C6.69124 8.52504 6.76185 8.52436 6.81655 8.56852C6.81706 8.63571 6.848 8.69437 6.86972 8.75559C6.96408 9.01906 7.07588 9.27605 7.15777 9.54395Z" fill="white"/>
<path d="M9.58032 5.56239C9.74084 5.4894 9.9147 5.46348 10.0856 5.43381C10.3214 5.39288 10.5614 5.3748 10.8007 5.38111C11.2532 5.39271 11.6975 5.45274 12.1095 5.65942C12.1261 5.66777 12.1432 5.67562 12.1593 5.685C12.2059 5.71279 12.2524 5.74127 12.3191 5.78169C12.1873 5.78629 12.0801 5.80351 11.9752 5.83949C11.7329 5.92237 11.5984 6.1016 11.5206 6.33232C11.496 6.40514 11.4767 6.48085 11.4669 6.55691C11.4601 6.61097 11.4315 6.63296 11.3874 6.64644C11.1353 6.72334 10.8802 6.78337 10.6159 6.80469C10.427 6.82003 10.2388 6.83981 10.0491 6.8376C10.0475 6.82225 10.0492 6.80554 10.0441 6.79155C9.89008 6.3816 9.73503 5.972 9.58032 5.56239Z" fill="white"/>
<path d="M7.15762 9.54397C7.07574 9.27607 6.96394 9.01908 6.86957 8.75562C6.84786 8.6944 6.81692 8.63573 6.81641 8.56855C6.98907 8.60862 7.16121 8.65108 7.33438 8.68809C7.55029 8.7343 7.76757 8.77113 7.98741 8.79637C8.2464 8.82639 8.50487 8.85452 8.76608 8.85145C8.8319 8.85077 8.85993 8.87294 8.83686 8.95599C8.65753 9.60178 8.35358 10.1845 7.95937 10.7235C7.89065 10.8176 7.82398 10.9135 7.73936 10.995C7.64226 10.7356 7.54892 10.4747 7.44635 10.2176C7.40567 10.1158 7.39199 9.99945 7.30618 9.91811C7.3272 9.83284 7.34139 9.74502 7.37199 9.66334C7.39336 9.60604 7.35832 9.59581 7.32566 9.58524C7.27113 9.56733 7.21386 9.55727 7.15762 9.54397Z" fill="white"/>
<path d="M6.19401 6.49982C6.19999 6.64358 6.2788 6.76431 6.32154 6.8963C6.40222 7.14476 6.51283 7.38265 6.58702 7.63367C6.23675 7.50833 5.91006 7.33473 5.58919 7.14988C5.30148 6.98429 5.03275 6.7904 4.77872 6.57895C4.54127 6.38131 4.32417 6.16098 4.11851 5.92924C3.79354 5.56294 3.5366 5.15333 3.3195 4.71712C3.29761 4.67346 3.27625 4.62947 3.27368 4.57268C3.4166 4.69154 3.55318 4.80699 3.69165 4.92005C4.08278 5.23945 4.49853 5.52474 4.92488 5.79503C5.32712 6.04997 5.74561 6.27541 6.17452 6.48192C6.18221 6.48567 6.18751 6.49368 6.19401 6.49982Z" fill="white"/>
<path d="M9.58025 5.56237C9.73496 5.97198 9.89001 6.38159 10.044 6.79154C10.0492 6.80553 10.0475 6.82224 10.049 6.83759C9.37254 6.82906 8.70208 6.7646 8.03076 6.62698C8.15726 6.43787 8.31437 6.28951 8.47899 6.15172C8.70977 5.95834 8.96996 5.80742 9.24587 5.68618C9.35459 5.63826 9.46246 5.58608 9.58025 5.56237Z" fill="white"/>
<path d="M7.30639 9.91806C7.3922 9.9994 7.40588 10.1157 7.44657 10.2175C7.54914 10.4748 7.64247 10.7356 7.73957 10.9949C7.62059 11.172 7.46845 11.3201 7.3122 11.4624C7.06911 11.6834 6.8079 11.8822 6.52925 12.058C6.32958 12.1839 6.11966 12.2899 5.90888 12.3952C5.89315 12.403 5.87965 12.4037 5.85742 12.3957C5.93264 12.3024 6.02017 12.2238 6.09675 12.1356C6.34941 11.845 6.57541 11.5362 6.76704 11.2023C7.00005 10.7963 7.18091 10.3688 7.30639 9.91806Z" fill="white"/>
<path d="M10.9364 9.17853C10.8249 8.96145 10.7562 8.72731 10.6688 8.50085C10.5283 8.13745 10.3936 7.77184 10.2563 7.40725C10.6169 7.3948 10.9721 7.3433 11.3232 7.26264C11.3885 7.24746 11.3935 7.28174 11.388 7.32761C11.3545 7.60046 11.322 7.87313 11.2598 8.14137C11.1778 8.49522 11.0774 8.8431 10.9364 9.17853Z" fill="white"/>
<path d="M7.85097 11.7221C7.93337 11.9302 8.01611 12.1382 8.09851 12.3463C7.87918 12.48 7.64532 12.585 7.40702 12.6783C7.06734 12.8116 6.72031 12.9237 6.36577 13.0117C6.10626 13.0761 5.8442 13.1278 5.56641 13.1755C5.62453 13.1077 5.69855 13.0976 5.76026 13.0705C6.33226 12.8179 6.8687 12.506 7.36496 12.1259C7.53249 11.9979 7.6949 11.8638 7.85097 11.7221" fill="white"/>
</svg>
